<svg width="544" height="531" viewBox="0 0 544 531" fill="none" xmlns="http://www.w3.org/2000/svg">
<g opacity="0.5">
<path d="M84.1551 270.738C71.8419 289.067 74.8464 318.417 107.185 338.46L107.38 338.581C126.355 350.342 153.274 367.027 165.546 348.76C177.859 330.431 168.727 321.971 156.626 288.866C140.368 254.012 96.4683 252.409 84.1551 270.738Z" fill="#D9AE86"/>
<path d="M444.361 164.301C447.639 120.052 421.026 97.3607 394.356 96.6609C367.686 95.9612 338.162 138.721 360.779 177.715C384.625 211.58 386.442 225.968 413.112 226.668C439.782 227.368 442.437 190.279 444.361 164.301Z" fill="#D9AE86"/>
<path d="M94.5374 345.947C57.1902 322.8 54.5634 287.649 69.5799 265.297C84.5963 242.944 136.08 243.625 154.096 285.009C167.285 324.409 177.746 334.308 162.729 356.661C147.713 379.014 116.463 359.537 94.5374 345.947Z" fill="#D9AE86"/>
<path d="M219.577 137.1C233.734 165.106 287.318 167.951 307.55 157.442C327.783 146.933 323.029 118.723 308.872 90.7176C293.907 61.1145 246.441 41.0636 226.209 51.5729C205.977 62.0821 192.517 95.7214 219.577 137.1Z" fill="#D9AE86"/>
<path d="M196.744 148.96C210.902 176.966 181.884 222.717 161.651 233.227C141.419 243.736 121.607 223.349 107.45 195.343C92.4852 165.74 104.152 114.973 124.385 104.464C144.617 93.9545 179.415 102.527 196.744 148.96Z" fill="#D9AE86"/>
<ellipse cx="85.7458" cy="81.6671" rx="85.7458" ry="81.6671" transform="matrix(0.887423 -0.460957 0.451143 0.892452 152.495 355.594)" fill="#D9AE86"/>
<ellipse cx="85.7458" cy="81.6671" rx="85.7458" ry="81.6671" transform="matrix(0.887423 -0.460957 0.451143 0.892452 165.239 245.634)" fill="#D9AE86"/>
<ellipse cx="85.7458" cy="81.6671" rx="85.7458" ry="81.6671" transform="matrix(0.887423 -0.460957 0.451143 0.892452 270.906 294.087)" fill="#D9AE86"/>
<path d="M232.032 326.09C237.473 336.852 232.774 350.309 221.538 356.145C210.301 361.982 165.443 411.856 191.519 349.102C198.472 332.368 197.819 327.868 197.723 311.925C184.597 248.865 226.591 315.327 232.032 326.09Z" fill="#D9AE86"/>
<path d="M339.219 263.563C344.66 274.326 358.18 278.319 369.416 272.482C380.653 266.646 446.789 258.865 381.309 243.669C363.848 239.616 360.626 236.45 347.916 227.06C305.086 179.429 333.779 252.8 339.219 263.563Z" fill="#D9AE86"/>
<path d="M416.307 395.223C425.256 406.321 377.072 413.142 356.726 423.711C336.38 434.279 293.9 474.744 288.405 463.874C282.91 453.003 316.082 418.741 342.825 404.85C369.568 390.959 410.812 384.353 416.307 395.223Z" fill="#D9AE86"/>
</g>
</svg>
