<svg width="9932" height="6190" viewBox="0 0 9932 6190" fill="none" xmlns="http://www.w3.org/2000/svg">
<path d="M9634.15 5952.01C9654.84 5920.43 9696.73 5906.26 9735.38 5920.14C9767.53 5931.7 9788.66 5959.51 9792.03 5989.99C9793.2 5993.85 9793.47 6000.99 9792.4 6012.59C9794.15 6028.3 9794.01 6032.82 9802.9 6048.38C9803.56 6049.53 9804.18 6050.65 9804.77 6051.72C9826.49 6073.79 9834.96 6106.21 9823.83 6136.15C9808.12 6178.42 9759.24 6199.71 9714.68 6183.7C9710.48 6182.19 9706.47 6180.41 9702.67 6178.38C9689.23 6172.63 9668.19 6157.72 9654.07 6152.64C9644.33 6149.14 9627.03 6146.47 9611.4 6143.54C9603.96 6142.85 9596.47 6141.23 9589.1 6138.58C9587.8 6138.11 9586.51 6137.61 9585.24 6137.09C9585.2 6137.08 9585.16 6137.06 9585.12 6137.04C9585.06 6137.02 9584.99 6136.99 9584.93 6136.96C9584.51 6136.79 9584.1 6136.62 9583.71 6136.45C9542.68 6118.69 9521.8 6073.58 9536.87 6033.04C9544.58 6012.3 9560.28 5996.6 9579.53 5987.89C9583.68 5985.8 9589.28 5983.42 9596.6 5980.72C9613.61 5974.46 9616.46 5970.92 9628.1 5960.02C9630.31 5956.91 9632.32 5954.26 9634.15 5952.01ZM6910.04 5656.96C6966.5 5635.59 7026.79 5648.7 7066.3 5685.77C7072.3 5689.61 7080.86 5698.91 7092.75 5715.72C7113.11 5734.83 7118.11 5741.05 7147.92 5751.76C7150.12 5752.55 7152.23 5753.33 7154.26 5754.09C7208.76 5758.82 7257.35 5792.65 7276.75 5845.64C7304.15 5920.47 7262.93 6005.16 7184.68 6034.79C7177.32 6037.58 7169.89 6039.78 7162.45 6041.42C7137.81 6049.11 7092.42 6053.23 7067.62 6062.62C7050.51 6069.1 7024.22 6085.34 6999.84 6099.35C6989.07 6106.97 6977.14 6113.38 6964.2 6118.28C6961.91 6119.15 6959.6 6119.96 6957.29 6120.72C6956.33 6121.05 6955.39 6121.34 6954.49 6121.61C6878.99 6144.82 6799.18 6108.18 6772.91 6036.43C6759.47 5999.73 6762.55 5960.65 6778.4 5926.87C6781.57 5919.28 6786.37 5909.65 6793.12 5897.6C6808.78 5869.67 6808.56 5861.64 6811.68 5833.64C6811.09 5826.93 6810.74 5821.06 6810.61 5815.95C6802.17 5749.77 6842.18 5682.66 6910.04 5656.96ZM9837.35 5988.52C9850.61 5945.43 9902.04 5938.05 9919.65 5958.1C9937.25 5978.15 9938.67 6013.09 9903.97 6040.74C9883.6 6056.98 9854.58 6080.22 9836.98 6060.17C9819.38 6040.13 9828.7 6029.02 9837.35 5988.52ZM995.654 5619.84C1036.4 5563.1 1114.93 5540.23 1185.27 5568.96C1243.78 5592.85 1280.62 5645.93 1284.44 5702.51C1286.3 5709.74 1286.23 5722.97 1283.34 5744.34C1285.32 5773.5 1284.71 5781.84 1299.9 5811.31C1301.02 5813.49 1302.09 5815.59 1303.1 5817.62C1341.48 5860.13 1354.58 5920.73 1331.64 5975.17C1299.24 6052.05 1207.24 6087.53 1126.14 6054.41C1118.51 6051.29 1111.25 6047.68 1104.38 6043.63C1080.01 6031.95 1042.29 6002.71 1016.59 5992.21C998.849 5984.97 967.089 5978.65 938.409 5972C924.731 5970.15 911.033 5966.55 897.633 5961.08C895.254 5960.11 892.912 5959.08 890.605 5958.02C889.626 5957.58 888.694 5957.14 887.812 5956.69C813.402 5920.62 778.393 5835.6 809.454 5761.89C825.347 5724.17 855.586 5696.41 891.845 5681.84C899.69 5678.29 910.23 5674.33 923.992 5669.92C955.914 5659.69 961.477 5653.38 983.843 5634.16C988.178 5628.59 992.106 5623.84 995.654 5619.84ZM9575.27 5834.31C9601.06 5830.27 9634.23 5866.07 9619.74 5905.91C9619.11 5908.64 9618.24 5911.41 9617.1 5914.2C9603.39 5940.97 9601.37 5953.96 9587.51 5959.31C9583.39 5961.92 9578.31 5963.66 9571.5 5964.73C9544.89 5968.89 9537.96 5932.73 9533.04 5907.41C9524.66 5864.28 9548.67 5838.47 9575.27 5834.31ZM9771.24 5857.3C9783.23 5809.34 9817.06 5796.36 9838.51 5804.07C9859.97 5811.78 9877.5 5860.23 9865.94 5891.33C9855 5920.74 9837.53 5943.39 9816.07 5935.68C9794.62 5927.97 9760.31 5886.72 9771.24 5857.3ZM6596.45 5725.38C6626.46 5690.36 6712.11 5700.39 6738.36 5770.54C6740.65 5774.94 6742.66 5779.66 6744.33 5784.7C6756.62 5836.4 6768.81 5856.17 6756.35 5879.26C6753.81 5887.5 6748.98 5895.67 6741.04 5904.92C6710.08 5941.05 6659.26 5900.42 6623.6 5872.05C6562.84 5823.72 6565.48 5761.5 6596.45 5725.38ZM9652.33 5814.58C9663.89 5783.49 9709.07 5757.57 9730.53 5765.27C9751.99 5772.98 9769.33 5804.34 9747.03 5848.6C9736.09 5878.02 9682.81 5887.8 9661.35 5880.09C9639.89 5872.38 9641.4 5843.99 9652.33 5814.58ZM1368.32 5703.4C1396.23 5624.82 1491.87 5615.25 1522.82 5653.7C1553.76 5692.14 1553.63 5756.84 1487.31 5805.19C1448.37 5833.58 1392.9 5874.25 1361.95 5835.8C1331.01 5797.36 1349.12 5777.57 1368.32 5703.4ZM5565.52 5532.84C5595.84 5517.09 5630.61 5520.48 5655.27 5538.7C5658.89 5540.47 5664.32 5545.13 5672.11 5553.79C5684.82 5563.18 5688.04 5566.34 5705.5 5570.4C5706.79 5570.7 5708.03 5570.99 5709.22 5571.29C5740.17 5570.34 5769.72 5586.15 5784.13 5614.65C5804.47 5654.9 5786.9 5705.23 5744.88 5727.06C5740.92 5729.11 5736.89 5730.84 5732.81 5732.25C5719.47 5738.21 5694.23 5743.52 5680.92 5750.44C5671.73 5755.21 5658.02 5766.08 5645.25 5775.57C5639.69 5780.56 5633.41 5784.95 5626.46 5788.56C5625.23 5789.2 5623.99 5789.81 5622.74 5790.39C5622.71 5790.41 5622.67 5790.42 5622.64 5790.44C5622.58 5790.47 5622.52 5790.5 5622.45 5790.52C5622.02 5790.73 5621.6 5790.92 5621.19 5791.09C5580.3 5809.11 5533.03 5793.79 5513.53 5755.2C5503.55 5735.46 5502.69 5713.29 5509.37 5693.25C5510.65 5688.78 5512.71 5683.05 5515.71 5675.83C5522.66 5659.1 5522.01 5654.59 5521.91 5638.65C5521.14 5634.92 5520.55 5631.64 5520.14 5628.78C5511.02 5592.14 5529.07 5551.77 5565.52 5532.84ZM8457.98 5515.12C8488.16 5499.09 8522.96 5502.17 8547.78 5520.17C8551.42 5521.9 8556.89 5526.5 8564.75 5535.1C8577.55 5544.37 8580.8 5547.51 8598.3 5551.4C8599.59 5551.69 8600.83 5551.97 8602.03 5552.26C8632.96 5551.03 8662.66 5566.56 8677.33 5594.93C8698.04 5635 8680.93 5685.48 8639.1 5707.69C8635.17 5709.79 8631.15 5711.55 8627.09 5713C8613.8 5719.08 8588.61 5724.62 8575.36 5731.66C8566.21 5736.52 8552.61 5747.51 8539.92 5757.12C8534.41 5762.16 8528.18 5766.61 8521.26 5770.28C8520.04 5770.93 8518.8 5771.55 8517.57 5772.13C8517.52 5772.16 8517.47 5772.18 8517.42 5772.2C8517.37 5772.23 8517.31 5772.26 8517.25 5772.28C8516.84 5772.48 8516.43 5772.67 8516.03 5772.84C8475.3 5791.25 8427.88 5776.36 8408.02 5737.95C8397.86 5718.3 8396.8 5696.14 8403.3 5676.04C8404.54 5671.55 8406.55 5665.8 8409.48 5658.56C8416.28 5641.76 8415.59 5637.27 8415.34 5621.33C8414.53 5617.6 8413.92 5614.33 8413.48 5611.47C8404.03 5574.91 8421.71 5534.38 8457.98 5515.12ZM2782.13 5344.76C2826.64 5315.74 2880.96 5315.67 2921.91 5340.09C2927.79 5342.26 2936.9 5348.64 2950.29 5360.87C2971.4 5373.45 2976.87 5377.86 3004.52 5381.46C3006.56 5381.73 3008.52 5382 3010.41 5382.27C3058.16 5376.07 3106.32 5396.01 3132.97 5437.91C3170.63 5497.09 3151.13 5577.67 3089.44 5617.89C3083.63 5621.67 3077.65 5624.96 3071.56 5627.77C3051.83 5639.04 3013.58 5651.12 2994.03 5663.86C2980.54 5672.66 2960.99 5691.58 2942.67 5708.22C2934.84 5716.79 2925.8 5724.55 2915.59 5731.2C2913.79 5732.38 2911.98 5733.5 2910.15 5734.58C2909.36 5735.05 2908.6 5735.49 2907.86 5735.9C2847.32 5770.07 2771.8 5753.6 2735.7 5696.86C2717.23 5667.83 2712.51 5633.66 2719.78 5601.62C2721.08 5594.5 2723.39 5585.32 2726.93 5573.68C2735.13 5546.72 2733.43 5539.86 2730.84 5515.2C2729.06 5509.54 2727.66 5504.55 2726.59 5500.18C2706.86 5444.87 2728.62 5379.63 2782.13 5344.76ZM7125.5 5631.79C7093.86 5558.7 7154.5 5489.76 7201.15 5496.49C7247.8 5503.22 7289.82 5548.53 7274.94 5625.5C7266.2 5670.69 7253.89 5735.22 7207.23 5728.49C7160.58 5721.76 7160.36 5696.14 7125.5 5631.79ZM5393.77 5592.02C5408.32 5570.36 5457.13 5570.33 5476.53 5608.02C5478.11 5610.35 5479.55 5612.87 5480.82 5615.59C5491.14 5643.85 5499.31 5654.15 5493.82 5667.95C5492.94 5672.75 5490.77 5677.66 5486.92 5683.39C5471.9 5705.74 5440.65 5686.26 5418.73 5672.67C5381.38 5649.53 5378.75 5614.38 5393.77 5592.02ZM6725.81 5454.47C6763.48 5440.2 6822.77 5462.42 6843.6 5547.48C6862.66 5599.54 6802.3 5673.84 6764.63 5688.1C6726.96 5702.37 6696.4 5662.5 6677.34 5610.44C6657.19 5555.41 6688.14 5468.73 6725.81 5454.47ZM8286.78 5575.87C8301.13 5554.08 8349.94 5553.61 8369.68 5591.12C8371.28 5593.43 8372.74 5595.93 8374.04 5598.65C8384.62 5626.81 8392.88 5637.03 8387.52 5650.89C8386.68 5655.69 8384.55 5660.62 8380.76 5666.38C8365.95 5688.87 8334.52 5669.68 8312.47 5656.29C8274.92 5633.49 8271.97 5598.36 8286.78 5575.87ZM4182.89 5285.41C4215.99 5239.32 4279.79 5220.74 4336.92 5244.08C4384.45 5263.49 4414.38 5306.6 4417.48 5352.57C4419 5358.44 4418.94 5369.19 4416.59 5386.55C4418.19 5410.24 4417.7 5417.01 4430.04 5440.95C4430.96 5442.72 4431.82 5444.43 4432.64 5446.08C4463.82 5480.61 4474.46 5529.83 4455.83 5574.06C4429.51 5636.51 4354.77 5665.33 4288.89 5638.43C4282.69 5635.89 4276.79 5632.96 4271.21 5629.66C4251.41 5620.17 4220.77 5596.43 4199.9 5587.9C4185.49 5582.02 4159.71 5576.89 4136.42 5571.49C4125.3 5569.99 4114.16 5567.06 4103.27 5562.61C4101.34 5561.82 4099.44 5561 4097.57 5560.13C4096.77 5559.78 4096.02 5559.42 4095.3 5559.06C4034.85 5529.75 4006.4 5460.69 4031.64 5400.8C4044.55 5370.16 4069.1 5347.62 4098.55 5335.78C4104.93 5332.89 4113.49 5329.68 4124.68 5326.1C4150.61 5317.79 4155.13 5312.66 4173.3 5297.04C4176.82 5292.52 4180.01 5288.66 4182.89 5285.41ZM896.167 5397.64C944.141 5392.22 1002.62 5461.01 972.688 5533.49C971.303 5538.5 969.472 5543.55 967.153 5548.6C939.681 5596.99 934.927 5620.83 908.899 5629.64C901.073 5634.13 891.547 5636.95 878.863 5638.38C829.364 5643.97 819.413 5576.58 812.324 5529.39C800.248 5449.02 846.668 5403.22 896.167 5397.64ZM2525.38 5462.65C2544.59 5426.89 2620.12 5419.38 2655.91 5474.74C2658.71 5478.1 2661.32 5481.78 2663.71 5485.8C2684.01 5527.94 2698.22 5542.64 2691.85 5564.84C2691.22 5572.4 2688.61 5580.34 2683.53 5589.79C2663.71 5626.68 2612.36 5601.32 2576.35 5583.65C2515.01 5553.54 2505.56 5499.54 2525.38 5462.65ZM1256.53 5455.66C1282.48 5367.96 1346.03 5346.66 1385.07 5362.61C1424.12 5378.55 1452.67 5469.49 1428.85 5526.04C1406.31 5579.53 1372.22 5620.01 1333.18 5604.06C1294.13 5588.12 1233.99 5509.15 1256.53 5455.66ZM6915.4 5382.67C6953.07 5368.4 7032.22 5413.39 7052.37 5468.42C7071.44 5520.48 7073.96 5570.97 7036.28 5585.23C6998.61 5599.5 6905.17 5583.45 6886.11 5531.38C6847.17 5453.19 6877.73 5396.94 6915.4 5382.67ZM5448.57 5431.19C5468.81 5420.68 5503.6 5429.25 5520.93 5475.69C5535.09 5503.69 5506.07 5549.44 5485.84 5559.95C5465.61 5570.46 5445.8 5550.08 5431.64 5522.07C5416.68 5492.47 5428.34 5441.7 5448.57 5431.19ZM5718.55 5423.39C5745.22 5424.09 5771.83 5446.78 5768.55 5491.03C5766.63 5517.01 5763.97 5554.09 5737.3 5553.4C5710.63 5552.7 5708.82 5538.31 5684.97 5504.44C5662.35 5465.45 5691.88 5422.69 5718.55 5423.39ZM8340.11 5414.55C8360.25 5403.85 8395.12 5412.11 8412.88 5458.38C8427.29 5486.26 8398.69 5532.27 8378.55 5542.96C8358.42 5553.66 8338.42 5533.45 8324.01 5505.58C8308.77 5476.11 8319.98 5425.24 8340.11 5414.55ZM8610 5404.28C8636.68 5404.73 8663.5 5427.18 8660.62 5471.46C8658.94 5497.45 8656.62 5534.56 8629.94 5534.11C8603.27 5533.65 8601.32 5519.28 8577.17 5485.64C8554.19 5446.85 8583.33 5403.82 8610 5404.28ZM1040.15 5367.28C1063.98 5310.74 1149.53 5266.4 1188.58 5282.35C1227.62 5298.3 1257.2 5357.63 1212.47 5437.66C1189.93 5491.16 1090.67 5505.02 1051.63 5489.07C1012.58 5473.12 1017.61 5420.78 1040.15 5367.28ZM5550.4 5378.3C5570.63 5367.79 5618.1 5387.84 5633.06 5417.44C5647.22 5445.45 5651.97 5473.66 5631.74 5484.17C5611.51 5494.68 5557.92 5491.83 5543.77 5463.83C5516.71 5422.45 5530.17 5388.81 5550.4 5378.3ZM4485.62 5353.29C4508.29 5289.45 4585.99 5281.68 4611.13 5312.91C4636.26 5344.14 4636.16 5396.7 4582.28 5435.98C4550.65 5459.04 4505.59 5492.08 4480.45 5460.85C4455.31 5429.62 4470.02 5413.54 4485.62 5353.29ZM8441.45 5360.73C8461.59 5350.03 8509.23 5369.65 8524.47 5399.12C8538.88 5426.99 8543.89 5455.16 8523.76 5465.85C8503.62 5476.54 8450.01 5474.19 8435.6 5446.31C8408.16 5405.18 8421.31 5371.42 8441.45 5360.73ZM2585.58 5205.35C2615.29 5185.99 2670.45 5193.93 2704.38 5263.14C2730.58 5304.31 2692.67 5379.56 2662.97 5398.92C2633.26 5418.28 2599.48 5389.76 2573.28 5348.59C2545.59 5305.06 2555.88 5224.71 2585.58 5205.35ZM3002.21 5151.95C3043.59 5148.95 3088.25 5179.99 3089.95 5248.98C3090.95 5289.48 3092.52 5347.28 3051.13 5350.28C3009.75 5353.28 3004.74 5331.29 2962.65 5282.53C2921.68 5225.64 2960.82 5154.95 3002.21 5151.95ZM7425.08 5104.22C7445.32 5072.34 7487 5057.58 7525.85 5070.92C7558.16 5082.01 7579.68 5109.53 7583.48 5139.95C7584.71 5143.8 7585.08 5150.94 7584.18 5162.55C7586.14 5178.23 7586.07 5182.75 7595.18 5198.19C7595.85 5199.33 7596.49 5200.43 7597.1 5201.5C7619.12 5223.25 7628.06 5255.56 7617.35 5285.64C7602.24 5328.14 7553.67 5350.12 7508.88 5334.74C7504.67 5333.29 7500.64 5331.57 7496.8 5329.59C7483.29 5324.03 7462.04 5309.42 7447.84 5304.55C7438.05 5301.18 7420.72 5298.75 7405.04 5296.05C7397.6 5295.47 7390.09 5293.95 7382.68 5291.41C7381.37 5290.96 7380.08 5290.48 7378.81 5289.98C7378.25 5289.76 7377.72 5289.55 7377.21 5289.33C7335.96 5272.14 7314.47 5227.35 7328.96 5186.62C7336.37 5165.77 7351.84 5149.86 7370.96 5140.88C7375.08 5138.72 7380.65 5136.26 7387.94 5133.46C7404.86 5126.95 7407.66 5123.38 7419.14 5112.31C7421.31 5109.17 7423.28 5106.49 7425.08 5104.22ZM4102.08 5104.91C4141.05 5100.51 4188.55 5156.39 4164.24 5215.27C4163.11 5219.34 4161.63 5223.44 4159.74 5227.54C4137.42 5266.85 4133.56 5286.22 4112.42 5293.37C4106.06 5297.02 4098.32 5299.31 4088.02 5300.47C4047.81 5305.01 4039.73 5250.27 4033.97 5211.94C4024.16 5146.65 4061.87 5109.45 4102.08 5104.91ZM4394.81 5152.04C4415.89 5080.8 4467.52 5063.5 4499.23 5076.45C4530.95 5089.41 4554.15 5163.28 4534.79 5209.21C4516.48 5252.67 4488.79 5285.55 4457.08 5272.6C4425.36 5259.64 4376.5 5195.5 4394.81 5152.04ZM2735.07 5107.91C2764.78 5088.54 2841.31 5112.31 2869 5155.84C2895.2 5197.01 2906.87 5239.94 2877.17 5259.3C2847.46 5278.66 2764.1 5282.46 2737.9 5241.29C2689.69 5181.39 2705.37 5127.27 2735.07 5107.91ZM7628.78 5137.84C7641.42 5094.57 7692.75 5086.46 7710.63 5106.26C7728.52 5126.05 7730.44 5160.97 7696.13 5189.11C7676 5205.64 7647.31 5229.29 7629.42 5209.49C7611.54 5189.7 7620.7 5178.46 7628.78 5137.84ZM4219.04 5080.25C4238.4 5034.32 4307.89 4998.3 4339.61 5011.26C4371.33 5024.21 4395.35 5072.41 4359.02 5137.42C4340.71 5180.88 4260.08 5192.14 4228.36 5179.18C4196.65 5166.23 4200.73 5123.7 4219.04 5080.25ZM9295.72 4737.89C9329.59 4678.64 9403.6 4648.47 9474.86 4669.28C9534.13 4686.6 9575.3 4734.45 9584.73 4789.05C9587.27 4795.88 9588.54 4808.75 9587.89 4829.81C9592.75 4857.96 9593.01 4866.12 9610.75 4893.23C9612.06 4895.23 9613.31 4897.17 9614.49 4899.04C9656.09 4936.47 9674.94 4994.04 9658.15 5049.26C9634.43 5127.26 9548.6 5171.03 9466.44 5147.04C9458.72 5144.78 9451.29 5142 9444.21 5138.76C9419.34 5129.87 9379.73 5105.27 9353.69 5097.66C9335.73 5092.42 9304.24 5089.49 9275.71 5085.92C9262.22 5085.51 9248.53 5083.39 9234.94 5079.42C9232.54 5078.72 9230.17 5077.97 9227.83 5077.17C9226.84 5076.85 9225.89 5076.51 9224.98 5076.17C9149.01 5048.63 9106.38 4969.54 9129.12 4894.75C9140.75 4856.5 9167.33 4826.47 9201.08 4808.64C9208.35 4804.4 9218.2 4799.49 9231.14 4793.81C9261.13 4780.64 9265.9 4773.94 9285.69 4753C9289.34 4747.15 9292.68 4742.14 9295.72 4737.89ZM7364.54 4987.36C7390.26 4982.96 7423.94 5018.28 7410.02 5058.32C7409.43 5061.07 7408.6 5063.85 7407.5 5066.65C7394.16 5093.61 7392.33 5106.62 7378.55 5112.18C7374.47 5114.84 7369.42 5116.66 7362.61 5117.82C7336.07 5122.36 7328.62 5086.3 7323.35 5061.05C7314.35 5018.04 7338 4991.9 7364.54 4987.36ZM7560.82 5007.57C7572.12 4959.44 7605.76 4945.99 7627.33 4953.4C7648.89 4960.8 7667.1 5009 7655.98 5040.25C7645.47 5069.82 7628.32 5092.71 7606.75 5085.31C7585.19 5077.91 7550.3 5037.14 7560.82 5007.57ZM4897.65 4594.84C4938.39 4538.1 5016.93 4515.23 5087.27 4543.96C5145.78 4567.85 5182.62 4620.93 5186.44 4677.51C5188.3 4684.73 5188.23 4697.97 5185.34 4719.34C5187.32 4748.5 5186.71 4756.84 5201.9 4786.31C5203.02 4788.49 5204.09 4790.59 5205.1 4792.62C5243.48 4835.13 5256.58 4895.73 5233.64 4950.17C5201.24 5027.05 5109.24 5062.53 5028.14 5029.41C5020.51 5026.29 5013.25 5022.68 5006.38 5018.63C4982.01 5006.94 4944.29 4977.71 4918.59 4967.21C4900.85 4959.97 4869.09 4953.65 4840.41 4947C4826.73 4945.15 4813.03 4941.55 4799.63 4936.08C4797.25 4935.11 4794.91 4934.08 4792.6 4933.02C4791.62 4932.58 4790.69 4932.14 4789.81 4931.69C4715.4 4895.61 4680.39 4810.6 4711.45 4736.89C4727.35 4699.17 4757.58 4671.42 4793.84 4656.84C4801.68 4653.29 4812.23 4649.34 4825.99 4644.92C4857.91 4634.69 4863.48 4628.38 4885.84 4609.16C4890.18 4603.59 4894.1 4598.85 4897.65 4594.84ZM7441.31 4966.54C7452.43 4935.29 7497.24 4908.73 7518.8 4916.13C7540.37 4923.54 7558.16 4954.65 7536.48 4999.22C7525.96 5028.78 7472.82 5039.32 7451.26 5031.92C7429.69 5024.51 7430.8 4996.11 7441.31 4966.54ZM6251.52 4512.4C6299.47 4487.5 6354.44 4492.86 6393.44 4521.68C6399.18 4524.46 6407.76 4531.83 6420.09 4545.54C6440.19 4560.39 6445.29 4565.4 6472.9 4571.81C6474.95 4572.28 6476.91 4572.75 6478.79 4573.22C6527.73 4571.72 6574.47 4596.72 6597.26 4641.8C6629.44 4705.46 6601.65 4785.06 6535.18 4819.58C6528.93 4822.83 6522.55 4825.56 6516.11 4827.8C6495 4837.22 6455.08 4845.62 6434.02 4856.56C6419.49 4864.11 6397.81 4881.3 6377.61 4896.31C6368.83 4904.21 6358.89 4911.15 6347.9 4916.86C6345.96 4917.87 6344.01 4918.82 6342.05 4919.73C6341.21 4920.13 6340.39 4920.5 6339.61 4920.84C6274.92 4949.36 6200.14 4925.13 6169.29 4864.1C6153.5 4832.87 6152.14 4797.82 6162.7 4766.13C6164.73 4759.04 6167.99 4749.98 6172.73 4738.56C6183.73 4712.09 6182.7 4704.98 6182.55 4679.76C6181.32 4673.86 6180.39 4668.67 6179.75 4664.14C6165.32 4606.19 6193.87 4542.35 6251.52 4512.4ZM9666.34 4781.44C9685.52 4702.25 9777.5 4683.29 9811.46 4717.53C9845.42 4751.76 9851.83 4814.65 9792.26 4868.35C9757.29 4899.87 9707.48 4945 9673.53 4910.76C9639.57 4876.52 9655.17 4855.46 9666.34 4781.44ZM357.157 4614.65C385.135 4575.46 439.235 4559.54 487.779 4579.2C528.163 4595.57 553.667 4632.09 556.409 4671.09C557.704 4676.07 557.679 4685.19 555.729 4699.92C557.148 4720.02 556.746 4725.77 567.277 4746.06C568.055 4747.56 568.792 4749.01 569.493 4750.4C596.039 4779.63 605.185 4821.38 589.477 4858.96C567.292 4912.03 503.931 4936.66 447.958 4913.99C442.689 4911.85 437.673 4909.37 432.928 4906.59C416.101 4898.58 390.049 4878.51 372.315 4871.32C360.076 4866.36 338.183 4862.07 318.406 4857.54C308.964 4856.29 299.503 4853.84 290.246 4850.09C288.607 4849.43 286.994 4848.73 285.405 4848C284.715 4847.69 284.059 4847.38 283.438 4847.07C232.089 4822.34 207.802 4763.81 229.068 4712.94C239.95 4686.91 260.738 4667.72 285.702 4657.6C291.104 4655.13 298.366 4652.39 307.851 4649.32C329.838 4642.2 333.662 4637.84 349.043 4624.55C352.021 4620.7 354.719 4617.42 357.157 4614.65ZM1455.52 4629.84C1485.84 4614.09 1520.61 4617.48 1545.26 4635.7C1548.89 4637.46 1554.32 4642.12 1562.11 4650.79C1574.82 4660.18 1578.04 4663.34 1595.5 4667.4C1596.79 4667.7 1598.03 4667.99 1599.22 4668.29C1630.16 4667.34 1659.72 4683.15 1674.13 4711.65C1694.47 4751.9 1676.9 4802.23 1634.88 4824.06C1630.92 4826.11 1626.89 4827.84 1622.81 4829.25C1609.47 4835.21 1584.23 4840.52 1570.92 4847.44C1561.73 4852.21 1548.02 4863.08 1535.25 4872.56C1529.7 4877.56 1523.42 4881.95 1516.46 4885.56C1515.24 4886.2 1514 4886.81 1512.76 4887.38C1512.69 4887.41 1512.62 4887.44 1512.55 4887.48C1512.53 4887.49 1512.5 4887.5 1512.48 4887.51C1512.04 4887.72 1511.61 4887.91 1511.19 4888.09C1470.3 4906.11 1423.03 4890.79 1403.53 4852.2C1393.55 4832.46 1392.69 4810.28 1399.37 4790.24C1400.65 4785.77 1402.71 4780.04 1405.71 4772.83C1412.66 4756.1 1412.01 4751.59 1411.91 4735.65C1411.14 4731.92 1410.55 4728.64 1410.14 4725.78C1401.02 4689.14 1419.07 4648.77 1455.52 4629.84ZM5270.32 4678.4C5298.23 4599.82 5393.87 4590.25 5424.82 4628.7C5455.76 4667.14 5455.63 4731.84 5389.31 4780.19C5350.37 4808.58 5294.9 4849.25 5263.95 4810.8C5233.01 4772.36 5251.12 4752.57 5270.32 4678.4ZM1283.77 4689.02C1298.32 4667.36 1347.13 4667.33 1366.52 4705.02C1368.1 4707.35 1369.54 4709.87 1370.82 4712.59C1381.14 4740.85 1389.31 4751.15 1383.82 4764.95C1382.94 4769.75 1380.77 4774.66 1376.92 4780.39C1361.9 4802.74 1330.65 4783.26 1308.73 4769.67C1271.38 4746.53 1268.75 4711.38 1283.77 4689.02ZM3857.52 4507.84C3887.84 4492.09 3922.61 4495.48 3947.26 4513.7C3950.89 4515.46 3956.32 4520.12 3964.11 4528.79C3976.82 4538.18 3980.04 4541.34 3997.5 4545.4C3998.79 4545.7 4000.03 4545.99 4001.22 4546.29C4032.16 4545.34 4061.72 4561.15 4076.13 4589.65C4096.47 4629.9 4078.9 4680.23 4036.88 4702.06C4032.92 4704.11 4028.89 4705.84 4024.81 4707.25C4011.47 4713.21 3986.23 4718.52 3972.92 4725.44C3963.73 4730.21 3950.02 4741.08 3937.25 4750.56C3931.7 4755.56 3925.42 4759.95 3918.46 4763.56C3917.24 4764.2 3916 4764.81 3914.76 4765.38C3914.7 4765.41 3914.64 4765.44 3914.58 4765.46C3914.55 4765.48 3914.51 4765.5 3914.48 4765.51C3914.04 4765.72 3913.61 4765.91 3913.19 4766.09C3872.3 4784.11 3825.03 4768.79 3805.53 4730.2C3795.55 4710.46 3794.69 4688.3 3801.37 4668.26C3802.65 4663.78 3804.71 4658.05 3807.71 4650.83C3814.66 4634.1 3814.01 4629.59 3813.91 4613.65C3813.14 4609.92 3812.55 4606.64 3812.14 4603.78C3803.02 4567.14 3821.07 4526.77 3857.52 4507.84ZM614.235 4671.53C633.321 4617.3 699.241 4610.52 720.649 4636.97C742.057 4663.41 742.09 4708.01 696.463 4741.48C669.677 4761.13 631.51 4789.26 610.102 4762.82C588.694 4736.38 601.142 4722.7 614.235 4671.53ZM9176.59 4532C9222.66 4521.89 9286.44 4582.83 9264.68 4656.3C9263.84 4661.31 9262.57 4666.4 9260.83 4671.54C9239.02 4721.34 9236.81 4744.99 9212.4 4756.18C9205.25 4761.34 9196.28 4765.04 9184.09 4767.71C9136.55 4778.14 9120.07 4713.66 9108.42 4668.52C9088.56 4591.62 9129.05 4542.43 9176.59 4532ZM5979.88 4606.02C6002.89 4571.75 6080.08 4571.71 6110.76 4631.32C6113.26 4634.99 6115.54 4638.98 6117.55 4643.29C6133.88 4687.97 6146.79 4704.27 6138.12 4726.1C6136.72 4733.69 6133.29 4741.46 6127.2 4750.52C6103.45 4785.87 6054.03 4755.06 6019.35 4733.57C5960.28 4696.96 5956.13 4641.37 5979.88 4606.02ZM9532.66 4551.97C9549.02 4464.12 9608.63 4437 9648.18 4448.56C9687.74 4460.11 9724.68 4545.6 9707.24 4602.96C9690.74 4657.23 9661.7 4700.01 9622.15 4688.46C9582.59 4676.9 9516.16 4606.24 9532.66 4551.97ZM3685.77 4567.02C3700.32 4545.36 3749.13 4545.33 3768.52 4583.02C3770.1 4585.35 3771.54 4587.87 3772.82 4590.59C3783.14 4618.85 3791.31 4629.15 3785.82 4642.95C3784.94 4647.75 3782.77 4652.66 3778.92 4658.39C3763.9 4680.74 3732.65 4661.26 3710.73 4647.67C3673.38 4624.53 3670.75 4589.38 3685.77 4567.02ZM1338.57 4528.19C1358.81 4517.68 1393.6 4526.25 1410.93 4572.69C1425.09 4600.69 1396.07 4646.44 1375.84 4656.95C1355.61 4667.46 1335.8 4647.08 1321.64 4619.07C1306.68 4589.47 1318.34 4538.7 1338.57 4528.19ZM1608.55 4520.39C1635.22 4521.09 1661.83 4543.78 1658.55 4588.03C1656.63 4614.01 1653.97 4651.09 1627.3 4650.4C1600.63 4649.7 1598.81 4635.31 1574.97 4601.44C1552.35 4562.45 1581.88 4519.69 1608.55 4520.39ZM8016.52 4363.84C8046.84 4348.09 8081.61 4351.48 8106.27 4369.7C8109.89 4371.47 8115.32 4376.13 8123.11 4384.79C8135.82 4394.18 8139.04 4397.34 8156.5 4401.4C8157.79 4401.7 8159.03 4401.99 8160.22 4402.29C8191.17 4401.34 8220.72 4417.15 8235.13 4445.65C8255.47 4485.9 8237.9 4536.23 8195.88 4558.06C8191.92 4560.11 8187.89 4561.84 8183.81 4563.25C8170.47 4569.21 8145.23 4574.52 8131.92 4581.44C8122.73 4586.21 8109.02 4597.08 8096.25 4606.57C8090.69 4611.56 8084.41 4615.95 8077.46 4619.56C8076.23 4620.2 8074.99 4620.81 8073.74 4621.39C8073.71 4621.41 8073.67 4621.42 8073.64 4621.44C8073.58 4621.47 8073.51 4621.5 8073.45 4621.53C8073.02 4621.73 8072.6 4621.92 8072.19 4622.09C8031.3 4640.11 7984.03 4624.79 7964.53 4586.2C7954.55 4566.46 7953.69 4544.29 7960.37 4524.25C7961.65 4519.78 7963.71 4514.05 7966.71 4506.83C7973.66 4490.1 7973.01 4485.59 7972.91 4469.65C7972.14 4465.92 7971.55 4462.64 7971.14 4459.78C7962.02 4423.14 7980.07 4382.77 8016.52 4363.84ZM288.14 4461.66C321.201 4457.83 361.646 4505.14 341.16 4555.16C340.214 4558.62 338.961 4562.1 337.371 4565.59C318.532 4598.99 315.296 4615.44 297.384 4621.56C291.995 4624.68 285.428 4626.64 276.678 4627.66C242.565 4631.61 235.573 4585.17 230.594 4552.65C222.113 4497.26 254.027 4465.61 288.14 4461.66ZM4798.17 4372.64C4846.14 4367.22 4904.62 4436.01 4874.69 4508.49C4873.3 4513.5 4871.47 4518.55 4869.15 4523.6C4841.68 4571.99 4836.93 4595.83 4810.9 4604.64C4803.07 4609.13 4793.55 4611.95 4780.86 4613.38C4731.36 4618.97 4721.41 4551.58 4714.32 4504.39C4702.25 4424.02 4748.67 4378.22 4798.17 4372.64ZM9313.45 4487.95C9330.89 4430.59 9409.56 4378.86 9449.11 4390.41C9488.67 4401.97 9523.4 4456.64 9488.02 4538.94C9471.52 4593.2 9376.46 4616.7 9336.91 4605.15C9297.35 4593.6 9296.95 4542.22 9313.45 4487.95ZM536.686 4500.96C554.405 4440.45 598.174 4425.64 625.122 4436.56C652.069 4447.48 671.933 4510.11 655.618 4549.14C640.182 4586.06 616.762 4614.04 589.815 4603.12C562.868 4592.2 521.251 4537.88 536.686 4500.96ZM1440.4 4475.3C1460.63 4464.79 1508.1 4484.84 1523.06 4514.44C1537.22 4542.45 1541.97 4570.66 1521.74 4581.17C1501.51 4591.68 1447.92 4588.83 1433.77 4560.83C1406.71 4519.45 1420.17 4485.81 1440.4 4475.3ZM5158.53 4430.66C5184.48 4342.96 5248.03 4321.66 5287.07 4337.61C5326.12 4353.55 5354.67 4444.49 5330.85 4501.04C5308.31 4554.53 5274.22 4595.01 5235.18 4579.06C5196.13 4563.12 5135.99 4484.15 5158.53 4430.66ZM2598.52 4314.84C2628.84 4299.09 2663.61 4302.48 2688.26 4320.7C2691.89 4322.46 2697.32 4327.12 2705.11 4335.79C2717.82 4345.18 2721.04 4348.34 2738.5 4352.4C2739.79 4352.7 2741.03 4352.99 2742.22 4353.29C2773.16 4352.34 2802.72 4368.15 2817.13 4396.65C2837.47 4436.9 2819.9 4487.23 2777.88 4509.06C2773.92 4511.11 2769.89 4512.84 2765.81 4514.25C2752.47 4520.21 2727.23 4525.52 2713.92 4532.44C2704.73 4537.21 2691.02 4548.08 2678.25 4557.56C2672.7 4562.56 2666.42 4566.95 2659.46 4570.56C2658.24 4571.2 2657 4571.81 2655.76 4572.38C2655.69 4572.41 2655.62 4572.44 2655.55 4572.48C2655.53 4572.49 2655.5 4572.5 2655.48 4572.51C2655.04 4572.72 2654.61 4572.91 2654.19 4573.09C2613.3 4591.11 2566.03 4575.79 2546.53 4537.2C2536.55 4517.46 2535.69 4495.28 2542.37 4475.24C2543.65 4470.77 2545.71 4465.04 2548.71 4457.83C2555.66 4441.1 2555.01 4436.59 2554.91 4420.65C2554.14 4416.92 2553.55 4413.64 2553.14 4410.78C2544.02 4374.14 2562.07 4333.77 2598.52 4314.84ZM6066.56 4351.65C6098.56 4335.02 6153.59 4348.58 6181 4422.02C6203.39 4466.31 6157.5 4538.67 6125.5 4555.29C6093.5 4571.91 6062.16 4539.67 6039.77 4495.38C6016.1 4448.56 6034.56 4368.27 6066.56 4351.65ZM6493.54 4339.3C6535.72 4340.41 6577.81 4376.3 6572.62 4446.28C6569.58 4487.37 6565.38 4546.03 6523.2 4544.92C6481.02 4543.81 6478.15 4521.06 6440.43 4467.5C6404.66 4405.83 6451.36 4338.2 6493.54 4339.3ZM3740.57 4406.19C3760.81 4395.68 3795.6 4404.25 3812.93 4450.69C3827.09 4478.69 3798.07 4524.44 3777.84 4534.95C3757.61 4545.46 3737.8 4525.08 3723.64 4497.07C3708.68 4467.47 3720.34 4416.7 3740.57 4406.19ZM387.343 4440.45C403.659 4401.42 462.555 4370.69 489.502 4381.61C516.45 4392.53 536.954 4433.38 506.275 4488.64C490.839 4525.56 422.439 4535.31 395.492 4524.39C368.544 4513.47 371.908 4477.37 387.343 4440.45ZM4010.55 4398.39C4037.22 4399.09 4063.83 4421.78 4060.55 4466.03C4058.63 4492.01 4055.97 4529.09 4029.3 4528.4C4002.63 4527.7 4000.81 4513.31 3976.97 4479.44C3954.35 4440.45 3983.88 4397.69 4010.55 4398.39ZM7844.77 4423.02C7859.32 4401.36 7908.13 4401.33 7927.53 4439.02C7929.11 4441.35 7930.55 4443.87 7931.82 4446.59C7942.14 4474.85 7950.31 4485.15 7944.82 4498.95C7943.94 4503.75 7941.77 4508.66 7937.92 4514.39C7922.9 4536.74 7891.65 4517.26 7869.73 4503.67C7832.38 4480.53 7829.75 4445.38 7844.77 4423.02ZM2426.77 4374.02C2441.32 4352.36 2490.13 4352.33 2509.52 4390.02C2511.1 4392.35 2512.54 4394.87 2513.82 4397.59C2524.14 4425.85 2532.31 4436.15 2526.82 4449.95C2525.94 4454.75 2523.77 4459.66 2519.92 4465.39C2504.9 4487.74 2473.65 4468.26 2451.73 4454.67C2414.38 4431.53 2411.75 4396.38 2426.77 4374.02ZM4942.15 4342.28C4965.98 4285.74 5051.53 4241.4 5090.58 4257.35C5129.62 4273.3 5159.2 4332.63 5114.47 4412.66C5091.93 4466.16 4992.67 4480.02 4953.63 4464.07C4914.58 4448.12 4919.61 4395.78 4942.15 4342.28ZM3842.4 4353.3C3862.63 4342.79 3910.1 4362.84 3925.06 4392.44C3939.22 4420.45 3943.97 4448.66 3923.74 4459.17C3903.51 4469.68 3849.92 4466.83 3835.77 4438.83C3808.71 4397.45 3822.17 4363.81 3842.4 4353.3ZM6227.6 4267.99C6259.6 4251.37 6334.67 4283.09 6358.34 4329.9C6380.73 4374.2 6388.25 4418.81 6356.25 4435.43C6324.25 4452.06 6239.5 4447.56 6217.11 4403.26C6174.31 4337.82 6195.6 4284.61 6227.6 4267.99ZM7899.57 4262.19C7919.81 4251.68 7954.6 4260.25 7971.93 4306.69C7986.09 4334.69 7957.07 4380.44 7936.84 4390.95C7916.61 4401.46 7896.8 4381.08 7882.64 4353.07C7867.68 4323.47 7879.34 4272.7 7899.57 4262.19ZM8169.55 4254.39C8196.22 4255.09 8222.83 4277.78 8219.55 4322.03C8217.63 4348.01 8214.97 4385.09 8188.3 4384.4C8161.63 4383.7 8159.82 4369.31 8135.97 4335.44C8113.35 4296.45 8142.88 4253.69 8169.55 4254.39ZM2481.57 4213.19C2501.81 4202.68 2536.6 4211.25 2553.93 4257.69C2568.09 4285.69 2539.07 4331.44 2518.84 4341.95C2498.61 4352.46 2478.8 4332.08 2464.64 4304.07C2449.68 4274.47 2461.34 4223.7 2481.57 4213.19ZM2751.55 4205.39C2778.22 4206.09 2804.83 4228.78 2801.55 4273.03C2799.63 4299.01 2796.97 4336.09 2770.3 4335.4C2743.63 4334.7 2741.81 4320.31 2717.97 4286.44C2695.35 4247.45 2724.88 4204.69 2751.55 4205.39ZM8001.4 4209.3C8021.63 4198.79 8069.1 4218.84 8084.06 4248.44C8098.22 4276.45 8102.97 4304.66 8082.74 4315.17C8062.51 4325.68 8008.92 4322.83 7994.77 4294.83C7967.71 4253.45 7981.17 4219.81 8001.4 4209.3ZM7051.52 4044.84C7081.84 4029.09 7116.61 4032.48 7141.27 4050.7C7144.89 4052.47 7150.32 4057.13 7158.11 4065.79C7170.82 4075.18 7174.04 4078.34 7191.5 4082.4C7192.79 4082.7 7194.03 4082.99 7195.22 4083.29C7226.17 4082.34 7255.72 4098.15 7270.13 4126.65C7290.47 4166.9 7272.9 4217.23 7230.88 4239.06C7226.92 4241.11 7222.89 4242.84 7218.81 4244.25C7205.47 4250.21 7180.23 4255.52 7166.92 4262.44C7157.73 4267.21 7144.02 4278.08 7131.25 4287.57C7125.69 4292.56 7119.41 4296.95 7112.46 4300.56C7111.23 4301.2 7109.99 4301.81 7108.74 4302.39C7108.71 4302.41 7108.67 4302.42 7108.64 4302.44C7108.58 4302.47 7108.51 4302.5 7108.45 4302.53C7108.02 4302.73 7107.6 4302.92 7107.19 4303.09C7066.3 4321.11 7019.03 4305.79 6999.53 4267.2C6989.55 4247.46 6988.69 4225.29 6995.37 4205.25C6996.65 4200.78 6998.71 4195.05 7001.71 4187.83C7008.66 4171.1 7008.01 4166.59 7007.91 4150.65C7007.14 4146.92 7006.55 4143.64 7006.14 4140.78C6997.02 4104.14 7015.07 4063.77 7051.52 4044.84ZM2583.4 4160.3C2603.63 4149.79 2651.1 4169.84 2666.06 4199.44C2680.22 4227.45 2684.97 4255.66 2664.74 4266.17C2644.51 4276.68 2590.92 4273.83 2576.77 4245.83C2549.71 4204.45 2563.17 4170.81 2583.4 4160.3ZM5515.26 4007.6C5533.32 3974.44 5573.92 3956.91 5613.57 3967.61C5646.55 3976.51 5669.87 4002.52 5675.71 4032.62C5677.19 4036.37 5678.04 4043.47 5677.92 4055.12C5680.93 4070.63 5681.16 4075.15 5691.29 4089.94C5692.03 4091.03 5692.74 4092.09 5693.42 4093.11C5716.86 4113.34 5727.94 4144.97 5719.28 4175.71C5707.05 4219.12 5660.07 4244.31 5614.35 4231.98C5610.05 4230.81 5605.91 4229.36 5601.95 4227.65C5588.09 4223.01 5565.91 4209.86 5551.42 4205.95C5541.43 4203.25 5523.98 4201.99 5508.15 4200.34C5500.68 4200.27 5493.09 4199.25 5485.53 4197.21C5484.07 4196.82 5482.63 4196.39 5481.2 4195.93C5480.78 4195.8 5480.37 4195.66 5479.97 4195.52C5437.64 4181.15 5413.16 4137.89 5424.89 4096.27C5430.89 4074.97 5445.25 4058.06 5463.72 4047.81C5467.69 4045.38 5473.08 4042.55 5480.17 4039.27C5496.61 4031.64 5499.17 4027.88 5509.88 4016.07C5511.84 4012.8 5513.63 4009.98 5515.26 4007.6ZM6879.77 4104.02C6894.32 4082.36 6943.13 4082.33 6962.53 4120.02C6964.11 4122.35 6965.55 4124.87 6966.82 4127.59C6977.14 4155.85 6985.31 4166.15 6979.82 4179.95C6978.94 4184.75 6976.77 4189.66 6972.92 4195.39C6957.9 4217.74 6926.65 4198.26 6904.73 4184.67C6867.38 4161.53 6864.75 4126.38 6879.77 4104.02ZM5720.76 4027.47C5730.47 3983.45 5781.14 3971.91 5800.31 3990.47C5819.48 4009.02 5823.74 4043.73 5791.41 4074.11C5772.42 4091.95 5745.38 4117.47 5726.21 4098.92C5707.04 4080.37 5715.43 4068.54 5720.76 4027.47ZM6934.57 3943.19C6954.81 3932.68 6989.6 3941.25 7006.93 3987.69C7021.09 4015.69 6992.07 4061.44 6971.84 4071.95C6951.61 4082.46 6931.8 4062.08 6917.64 4034.07C6902.68 4004.47 6914.34 3953.7 6934.57 3943.19ZM7204.55 3935.39C7231.22 3936.09 7257.83 3958.78 7254.55 4003.03C7252.63 4029.01 7249.97 4066.09 7223.3 4065.4C7196.63 4064.7 7194.82 4050.31 7170.97 4016.44C7148.35 3977.45 7177.88 3934.69 7204.55 3935.39ZM5447.02 3895.07C5472.39 3888.95 5508.36 3921.94 5497.16 3962.82C5496.75 3965.6 5496.11 3968.43 5495.2 3971.29C5483.7 3999.09 5482.75 4012.2 5469.38 4018.66C5465.48 4021.6 5460.56 4023.75 5453.85 4025.36C5427.67 4031.68 5417.82 3996.2 5410.86 3971.36C5399 3929.05 5420.84 3901.38 5447.02 3895.07ZM7036.4 3890.3C7056.63 3879.79 7104.1 3899.84 7119.06 3929.44C7133.22 3957.45 7137.97 3985.66 7117.74 3996.17C7097.51 4006.68 7043.92 4003.83 7029.77 3975.83C7002.71 3934.45 7016.17 3900.81 7036.4 3890.3ZM5644.21 3902.06C5652.26 3853.28 5684.92 3837.6 5706.93 3843.54C5728.94 3849.48 5750.35 3896.35 5741.35 3928.28C5732.85 3958.48 5717.27 3982.48 5695.26 3976.54C5673.25 3970.6 5635.7 3932.27 5644.21 3902.06ZM5522.22 3869.14C5531.22 3837.22 5574.14 3807.71 5596.15 3813.65C5618.16 3819.59 5638 3849.43 5619.37 3895.36C5610.86 3925.56 5558.54 3939.64 5536.53 3933.7C5514.52 3927.76 5513.71 3899.35 5522.22 3869.14ZM3179.52 3654.84C3209.84 3639.09 3244.61 3642.48 3269.26 3660.7C3272.89 3662.46 3278.32 3667.12 3286.11 3675.79C3298.82 3685.18 3302.04 3688.34 3319.5 3692.4C3320.79 3692.7 3322.03 3692.99 3323.22 3693.29C3354.16 3692.34 3383.72 3708.15 3398.13 3736.65C3418.47 3776.9 3400.9 3827.23 3358.88 3849.06C3354.92 3851.11 3350.89 3852.84 3346.81 3854.25C3333.47 3860.21 3308.23 3865.52 3294.92 3872.44C3285.73 3877.21 3272.02 3888.08 3259.25 3897.56C3253.7 3902.56 3247.42 3906.95 3240.46 3910.56C3239.24 3911.2 3238 3911.81 3236.76 3912.38C3236.69 3912.41 3236.62 3912.44 3236.55 3912.48C3236.53 3912.49 3236.5 3912.5 3236.48 3912.51C3236.04 3912.72 3235.61 3912.91 3235.19 3913.09C3194.3 3931.11 3147.03 3915.79 3127.53 3877.2C3117.55 3857.46 3116.69 3835.3 3123.37 3815.26C3124.65 3810.78 3126.71 3805.05 3129.71 3797.83C3136.66 3781.1 3136.01 3776.59 3135.91 3760.65C3135.14 3756.92 3134.55 3753.64 3134.14 3750.78C3125.02 3714.14 3143.07 3673.77 3179.52 3654.84ZM929.792 3630.7C963.257 3623.81 995.78 3636.55 1014.53 3660.8C1017.54 3663.49 1021.49 3669.45 1026.63 3679.91C1036.3 3692.41 1038.53 3696.33 1054.23 3704.99C1055.39 3705.63 1056.5 3706.26 1057.56 3706.86C1087.6 3714.39 1111.72 3737.65 1117.81 3769C1126.42 3813.28 1095.79 3856.91 1049.41 3866.45C1045.04 3867.35 1040.69 3867.92 1036.39 3868.16C1021.93 3870.26 996.193 3868.49 981.497 3871.51C971.354 3873.6 955.204 3880.32 940.33 3885.97C933.626 3889.26 926.386 3891.77 918.714 3893.35C917.36 3893.63 916.006 3893.87 914.656 3894.09C914.069 3894.19 913.504 3894.28 912.96 3894.34C868.698 3900.54 827.397 3872.91 819.149 3830.47C814.928 3808.75 820.147 3787.19 832.035 3769.73C834.488 3765.77 838.032 3760.82 842.884 3754.69C854.136 3740.49 854.734 3735.98 858.988 3720.62C859.258 3716.81 859.591 3713.5 859.977 3710.63C861.187 3672.89 889.563 3638.98 929.792 3630.7ZM4342.25 3563.51C4366.87 3515.51 4424.23 3489.03 4481.24 3502.9C4528.67 3514.44 4562.9 3550.76 4572.31 3593.54C4574.56 3598.85 4576.02 3608.96 4576.26 3625.6C4581.12 3647.65 4581.61 3654.09 4596.59 3674.85C4597.7 3676.39 4598.75 3677.87 4599.76 3679.31C4633.95 3707.37 4650.91 3752.15 4639.63 3796.36C4623.71 3858.8 4557.51 3896.45 4491.77 3880.46C4485.58 3878.95 4479.61 3877.02 4473.9 3874.71C4453.94 3868.58 4421.79 3850.59 4400.96 3845.52C4386.58 3842.02 4361.62 3840.84 4338.96 3839.05C4328.29 3839.21 4317.4 3838.03 4306.53 3835.39C4304.61 3834.92 4302.71 3834.41 4300.83 3833.86C4300.02 3833.64 4299.23 3833.4 4298.49 3833.15C4237.54 3814.12 4201.07 3753.22 4216.33 3693.36C4224.15 3662.73 4244.06 3638.07 4270.08 3622.77C4275.66 3619.16 4283.26 3614.93 4293.27 3609.99C4316.47 3598.51 4320 3593.05 4334.88 3575.81C4337.55 3571.06 4340 3566.98 4342.25 3563.51ZM3007.77 3714.02C3022.32 3692.36 3071.13 3692.33 3090.52 3730.02C3092.1 3732.35 3093.54 3734.87 3094.82 3737.59C3105.14 3765.85 3113.31 3776.15 3107.82 3789.95C3106.94 3794.75 3104.77 3799.66 3100.92 3805.39C3085.9 3827.74 3054.65 3808.26 3032.73 3794.67C2995.38 3771.53 2992.75 3736.38 3007.77 3714.02ZM748.41 3640.82C768.317 3623.95 815.281 3637.22 823.668 3678.77C824.555 3681.44 825.254 3684.26 825.734 3687.23C827.968 3717.22 833.011 3729.36 823.975 3741.15C821.816 3745.52 818.388 3749.66 813.125 3754.12C792.583 3771.53 767.827 3744.27 750.436 3725.22C720.813 3692.77 727.868 3658.23 748.41 3640.82ZM7909.46 3429.37C7930.77 3374.74 7989.88 3339.77 8053.06 3348.48C8105.62 3355.73 8146.64 3391.21 8161.54 3436.43C8164.56 3441.92 8167.25 3452.69 8169.35 3470.67C8177.04 3493.98 8178.28 3500.88 8196.77 3521.69C8198.14 3523.23 8199.44 3524.72 8200.69 3526.16C8240.76 3552.72 8264.03 3599.28 8256.72 3648.33C8246.39 3717.6 8178.96 3765.62 8106.11 3755.58C8099.25 3754.63 8092.59 3753.21 8086.16 3751.34C8063.9 3746.92 8027.15 3731 8004.07 3727.82C7988.14 3725.63 7961.01 3727.11 7936.31 3727.67C7924.79 3729.02 7912.89 3728.95 7900.84 3727.29C7898.72 3726.99 7896.61 3726.65 7894.53 3726.27C7893.62 3726.11 7892.76 3725.95 7891.93 3725.76C7823.91 3711.92 7777.73 3650.08 7787.64 3583.67C7792.7 3549.69 7811.5 3520.83 7837.94 3501.42C7843.58 3496.9 7851.34 3491.48 7861.62 3485.02C7885.45 3470.05 7888.66 3463.76 7902.84 3443.47C7905.21 3438.04 7907.41 3433.36 7909.46 3429.37ZM1052.45 3635.94C1041.32 3592.26 1081.39 3559.16 1106.86 3567.11C1132.32 3575.05 1151.74 3604.14 1136.53 3645.82C1127.6 3670.29 1114.93 3705.25 1089.46 3697.3C1063.99 3689.36 1066.17 3675.02 1052.45 3635.94ZM4636.47 3584.58C4648.77 3521.36 4720.73 3503.09 4748.77 3528.9C4776.82 3554.72 4784.14 3604.14 4739.03 3648.69C4712.55 3674.83 4674.84 3712.26 4646.8 3686.44C4618.75 3660.63 4630.31 3643.44 4636.47 3584.58ZM3062.57 3553.19C3082.81 3542.68 3117.6 3551.25 3134.93 3597.69C3149.09 3625.69 3120.07 3671.44 3099.84 3681.95C3079.61 3692.46 3059.8 3672.08 3045.64 3644.07C3030.68 3614.47 3042.34 3563.7 3062.57 3553.19ZM3332.55 3545.39C3359.22 3546.09 3385.83 3568.78 3382.55 3613.03C3380.63 3639.01 3377.97 3676.09 3351.3 3675.4C3324.63 3674.7 3322.81 3660.31 3298.97 3626.44C3276.35 3587.45 3305.88 3544.69 3332.55 3545.39ZM844.982 3501.02C867.313 3496.42 898.456 3514.16 902.471 3563.56C908.458 3594.36 868.067 3630.47 845.736 3635.07C823.405 3639.66 809.901 3614.65 803.915 3583.84C797.587 3551.28 822.651 3505.62 844.982 3501.02ZM3164.4 3500.3C3184.63 3489.79 3232.1 3509.84 3247.06 3539.44C3261.22 3567.45 3265.97 3595.66 3245.74 3606.17C3225.51 3616.68 3171.92 3613.83 3157.77 3585.83C3130.71 3544.45 3144.17 3510.81 3164.4 3500.3ZM957.368 3477.89C979.698 3473.29 1019.9 3505.53 1026.23 3538.09C1032.22 3568.89 1029.1 3597.33 1006.77 3601.92C984.438 3606.52 933.659 3589.17 927.672 3558.37C912.917 3511.18 935.037 3482.49 957.368 3477.89ZM4240.78 3405.21C4276.8 3395.57 4329.35 3441.4 4314.81 3500.19C4314.33 3504.18 4313.51 3508.25 4312.31 3512.37C4296.88 3552.48 4295.99 3571.24 4277.12 3580.95C4271.66 3585.28 4264.7 3588.52 4255.18 3591.07C4218.01 3601.02 4202.68 3550.69 4191.86 3515.46C4173.41 3455.46 4203.62 3415.16 4240.78 3405.21ZM8882.21 3356.75C8900.21 3323.55 8940.78 3305.95 8980.45 3316.58C9013.46 3325.42 9036.82 3351.39 9042.71 3381.48C9044.2 3385.23 9045.06 3392.33 9044.96 3403.98C9048 3419.48 9048.24 3423.99 9058.39 3438.77C9059.14 3439.86 9059.85 3440.92 9060.53 3441.94C9084.01 3462.13 9095.14 3493.74 9086.54 3524.49C9074.39 3567.93 9027.45 3593.2 8981.71 3580.94C8977.4 3579.79 8973.26 3578.34 8969.3 3576.64C8955.44 3572.02 8933.23 3558.91 8918.73 3555.03C8908.73 3552.35 8891.28 3551.12 8875.45 3549.5C8867.99 3549.44 8860.39 3548.44 8852.82 3546.41C8851.37 3546.02 8849.94 3545.6 8848.52 3545.14C8848.08 3545 8847.65 3544.86 8847.24 3544.72C8804.89 3530.41 8780.35 3487.21 8792 3445.57C8797.97 3424.27 8812.29 3407.33 8830.74 3397.05C8834.71 3394.61 8840.1 3391.77 8847.19 3388.47C8863.61 3380.82 8866.17 3377.06 8876.86 3365.23C8878.8 3361.95 8880.58 3359.14 8882.21 3356.75ZM8229.93 3419.68C8236.26 3349.96 8312.04 3322.26 8345.22 3347.07C8378.39 3371.89 8391.76 3424.53 8347.9 3477.67C8322.16 3508.87 8285.51 3553.5 8252.34 3528.68C8219.16 3503.86 8229.77 3483.99 8229.93 3419.68ZM6205.71 3107.9C6252.27 3083.71 6305.66 3088.91 6343.53 3116.9C6349.1 3119.6 6357.43 3126.76 6369.4 3140.08C6388.92 3154.5 6393.87 3159.36 6420.69 3165.58C6422.67 3166.04 6424.58 3166.5 6426.4 3166.95C6473.93 3165.5 6519.32 3189.78 6541.45 3233.55C6572.7 3295.37 6545.71 3372.66 6481.17 3406.19C6475.09 3409.34 6468.9 3412 6462.64 3414.17C6442.15 3423.32 6403.39 3431.48 6382.94 3442.1C6368.82 3449.43 6347.77 3466.13 6328.15 3480.7C6319.62 3488.37 6309.98 3495.11 6299.31 3500.65C6297.42 3501.63 6295.52 3502.56 6293.6 3503.45C6292.8 3503.84 6292.01 3504.19 6291.25 3504.52C6228.43 3532.21 6155.82 3508.69 6125.86 3449.42C6110.53 3419.1 6109.21 3385.05 6119.46 3354.27C6121.43 3347.4 6124.6 3338.6 6129.2 3327.51C6139.88 3301.81 6138.88 3294.9 6138.73 3270.41C6137.54 3264.68 6136.64 3259.64 6136.02 3255.25C6122 3198.97 6149.73 3136.98 6205.71 3107.9ZM4522.67 3408.19C4532.43 3338.23 4578.52 3314.68 4610.17 3322.38C4641.82 3330.08 4674.07 3396.26 4662.36 3442.18C4651.28 3485.62 4629.89 3520.45 4598.24 3512.75C4566.59 3505.05 4511.59 3451.64 4522.67 3408.19ZM7782.27 3269.39C7820.15 3254.99 7882.04 3298.75 7872.8 3363.92C7872.72 3368.29 7872.28 3372.77 7871.45 3377.37C7859.19 3422.44 7860.29 3442.82 7840.96 3455.4C7835.53 3460.69 7828.37 3464.96 7818.35 3468.77C7779.26 3483.63 7757.13 3430.9 7741.53 3394C7714.97 3331.15 7743.18 3284.24 7782.27 3269.39ZM4347.27 3365.51C4358.98 3319.59 4419.24 3275.92 4450.89 3283.62C4482.54 3291.32 4511.93 3333.24 4486.95 3399.5C4475.87 3442.94 4401.65 3464.92 4370 3457.22C4338.36 3449.51 4336.19 3408.96 4347.27 3365.51ZM9087.75 3376.25C9097.38 3332.21 9148.03 3320.59 9167.24 3339.1C9186.44 3357.62 9190.77 3392.32 9158.48 3422.76C9139.53 3440.63 9112.54 3466.21 9093.33 3447.69C9074.12 3429.17 9082.49 3417.33 9087.75 3376.25ZM8813.77 3244.33C8839.13 3238.17 8875.16 3271.09 8864.04 3311.99C8863.64 3314.77 8863 3317.6 8862.1 3320.47C8850.65 3348.29 8849.72 3361.4 8836.35 3367.89C8832.46 3370.83 8827.55 3372.99 8820.84 3374.62C8794.67 3380.98 8784.76 3345.51 8777.76 3320.69C8765.82 3278.4 8787.61 3250.69 8813.77 3244.33ZM7152.52 3105.84C7182.84 3090.09 7217.61 3093.48 7242.27 3111.7C7245.89 3113.47 7251.32 3118.13 7259.11 3126.79C7271.82 3136.18 7275.04 3139.34 7292.5 3143.4C7293.79 3143.7 7295.03 3143.99 7296.22 3144.29C7327.17 3143.34 7356.72 3159.15 7371.13 3187.65C7391.47 3227.9 7373.9 3278.23 7331.88 3300.06C7327.92 3302.11 7323.89 3303.84 7319.81 3305.25C7306.47 3311.21 7281.23 3316.52 7267.92 3323.44C7258.73 3328.21 7245.02 3339.08 7232.25 3348.57C7226.69 3353.56 7220.41 3357.95 7213.46 3361.56C7212.23 3362.2 7210.99 3362.81 7209.74 3363.39C7209.71 3363.41 7209.67 3363.42 7209.64 3363.44C7209.58 3363.47 7209.51 3363.5 7209.45 3363.53C7209.02 3363.73 7208.6 3363.92 7208.19 3364.09C7167.3 3382.11 7120.03 3366.79 7100.53 3328.2C7090.55 3308.46 7089.69 3286.29 7096.37 3266.25C7097.65 3261.78 7099.71 3256.05 7102.71 3248.83C7109.66 3232.1 7109.01 3227.59 7108.91 3211.65C7108.14 3207.92 7107.55 3204.64 7107.14 3201.78C7098.02 3165.14 7116.07 3124.77 7152.52 3105.84ZM5941.93 3198.8C5964.28 3165.53 6039.24 3165.49 6069.03 3223.37C6071.45 3226.94 6073.66 3230.82 6075.62 3235C6091.48 3278.39 6104.01 3294.21 6095.6 3315.41C6094.24 3322.78 6090.9 3330.32 6084.99 3339.12C6061.93 3373.45 6013.93 3343.54 5980.26 3322.67C5922.9 3287.12 5918.87 3233.13 5941.93 3198.8ZM8087.41 3241.5C8090.24 3164.77 8137.49 3134.22 8172.56 3139.05C8207.63 3143.88 8249.8 3211.89 8242.21 3262.84C8235.02 3311.03 8215.73 3351.05 8180.66 3346.22C8145.59 3341.38 8080.23 3289.7 8087.41 3241.5ZM9010.98 3250.98C9018.94 3202.18 9051.57 3186.44 9073.6 3192.34C9095.62 3198.25 9117.11 3245.08 9108.17 3277.02C9099.72 3307.24 9084.18 3331.26 9062.16 3325.36C9040.14 3319.46 9002.52 3281.2 9010.98 3250.98ZM7893.04 3214.71C7900.63 3163.76 7960.97 3109.89 7996.05 3114.72C8031.12 3119.55 8067.53 3161.64 8047.83 3236.04C8040.64 3284.24 7962.81 3316.19 7927.74 3311.36C7892.67 3306.52 7885.85 3262.91 7893.04 3214.71ZM8888.93 3218.27C8897.87 3186.33 8940.74 3156.75 8962.76 3162.65C8984.79 3168.55 9004.68 3198.36 8986.12 3244.32C8977.67 3274.54 8925.38 3288.71 8903.36 3282.81C8881.33 3276.91 8880.48 3248.49 8888.93 3218.27ZM6980.77 3165.02C6995.32 3143.36 7044.13 3143.33 7063.53 3181.02C7065.11 3183.35 7066.55 3185.87 7067.82 3188.59C7078.14 3216.85 7086.31 3227.15 7080.82 3240.95C7079.94 3245.75 7077.77 3250.66 7073.92 3256.39C7058.9 3278.74 7027.65 3259.26 7005.73 3245.67C6968.38 3222.53 6965.75 3187.38 6980.77 3165.02ZM1749.08 3011.02C1775.42 2983.96 1819.24 2978.04 1854.53 2999.04C1883.89 3016.52 1899.33 3047.85 1896.82 3078.41C1897.24 3082.42 1896.14 3089.49 1892.88 3100.67C1891.59 3116.42 1890.6 3120.83 1896.35 3137.81C1896.78 3139.06 1897.18 3140.27 1897.55 3141.44C1914.66 3167.24 1916.8 3200.69 1900.16 3227.95C1876.67 3266.45 1824.63 3278.03 1783.94 3253.81C1780.11 3251.53 1776.51 3249.01 1773.16 3246.29C1761.07 3238.09 1743.26 3219.44 1730.37 3211.76C1721.47 3206.47 1705.01 3200.55 1690.22 3194.69C1683.05 3192.6 1676.01 3189.57 1669.28 3185.57C1667.98 3184.79 1666.7 3183.99 1665.46 3183.16C1665.09 3182.92 1664.73 3182.68 1664.39 3182.44C1627.5 3157.18 1615.61 3108.92 1638.13 3072C1649.66 3053.12 1668.05 3040.71 1688.6 3035.83C1693.08 3034.56 1699.03 3033.29 1706.75 3032.04C1724.64 3029.13 1728.12 3026.2 1741.62 3017.72C1744.38 3015.1 1746.86 3012.87 1749.08 3011.02ZM2789.41 2811.86C2842.42 2802.26 2893.21 2823.56 2921.86 2862.5C2926.51 2866.84 2932.51 2876.39 2940.21 2893.08C2954.99 2913.15 2958.36 2919.42 2982.78 2933.66C2984.59 2934.71 2986.31 2935.73 2987.97 2936.73C3035.03 2949.72 3072.18 2987.3 3080.61 3036.95C3092.51 3107.07 3042.59 3174.69 2969.11 3188C2962.2 3189.25 2955.31 3189.98 2948.52 3190.21C2925.64 3192.96 2885.15 3189.21 2861.87 3193.42C2845.8 3196.33 2820.09 3206.32 2796.43 3214.66C2785.74 3219.6 2774.23 3223.29 2762.08 3225.49C2759.92 3225.88 2757.76 3226.22 2755.6 3226.51C2754.71 3226.64 2753.84 3226.75 2753.01 3226.83C2682.99 3234.95 2618.9 3189.85 2607.49 3122.62C2601.65 3088.22 2610.69 3054.42 2630.09 3027.34C2634.11 3021.2 2639.88 3013.53 2647.75 3004.06C2666.03 2982.09 2667.14 2975.01 2674.42 2950.95C2674.99 2944.96 2675.64 2939.75 2676.36 2935.24C2679.68 2875.8 2725.69 2823.4 2789.41 2811.86ZM1941.59 3085.61C1962.82 3045.84 2014.72 3048.41 2028.18 3071.45C2041.63 3094.49 2036.37 3129.06 1997.03 3149.59C1973.94 3161.64 1941.01 3178.92 1927.56 3155.88C1914.1 3132.85 1925.37 3123.72 1941.59 3085.61ZM197.652 2716.84C238.395 2660.1 316.934 2637.23 387.268 2665.96C445.775 2689.85 482.618 2742.93 486.441 2799.51C488.304 2806.74 488.23 2819.97 485.339 2841.34C487.316 2870.5 486.709 2878.84 501.901 2908.31C503.024 2910.49 504.087 2912.59 505.097 2914.62C543.484 2957.13 556.58 3017.73 533.641 3072.17C501.244 3149.05 409.237 3184.53 328.139 3151.41C320.509 3148.29 313.248 3144.68 306.38 3140.63C282.006 3128.95 244.29 3099.71 218.59 3089.21C200.849 3081.97 169.089 3075.65 140.409 3069C126.731 3067.15 113.033 3063.55 99.6333 3058.08C97.2518 3057.1 94.9071 3056.08 92.5981 3055.01C91.622 3054.58 90.6924 3054.14 89.812 3053.69C15.4015 3017.62 -19.6073 2932.6 11.4536 2858.89C27.347 2821.17 57.5862 2793.41 93.8452 2778.84C101.69 2775.29 112.23 2771.33 125.992 2766.92C157.914 2756.69 163.477 2750.38 185.843 2731.16C190.177 2725.59 194.104 2720.84 197.652 2716.84ZM6026.1 2951.79C6057.17 2935.65 6110.62 2948.82 6137.23 3020.13C6158.97 3063.14 6114.41 3133.41 6083.33 3149.55C6052.26 3165.69 6021.83 3134.38 6000.09 3091.36C5977.11 3045.9 5995.03 2967.93 6026.1 2951.79ZM6440.73 2939.81C6481.69 2940.88 6522.56 2975.73 6517.53 3043.69C6514.57 3083.59 6510.49 3140.55 6469.53 3139.47C6428.57 3138.4 6425.78 3116.3 6389.16 3064.29C6354.42 3004.4 6399.77 2938.73 6440.73 2939.81ZM7035.57 3004.19C7055.81 2993.68 7090.6 3002.25 7107.93 3048.69C7122.09 3076.69 7093.07 3122.44 7072.84 3132.95C7052.61 3143.46 7032.8 3123.08 7018.64 3095.07C7003.68 3065.47 7015.34 3014.7 7035.57 3004.19ZM7305.55 2996.39C7332.22 2997.09 7358.83 3019.78 7355.55 3064.03C7353.63 3090.01 7350.97 3127.09 7324.3 3126.4C7297.63 3125.7 7295.82 3111.31 7271.97 3077.44C7249.35 3038.45 7278.88 2995.69 7305.55 2996.39ZM7137.4 2951.3C7157.63 2940.79 7205.1 2960.84 7220.06 2990.44C7234.22 3018.45 7238.97 3046.66 7218.74 3057.17C7198.51 3067.68 7144.92 3064.83 7130.77 3036.83C7103.71 2995.45 7117.17 2961.81 7137.4 2951.3ZM6182.48 2870.56C6213.56 2854.42 6286.46 2885.21 6309.44 2930.68C6331.18 2973.69 6338.48 3017.01 6307.41 3033.15C6276.34 3049.3 6194.04 3044.93 6172.3 3001.91C6130.74 2938.36 6151.41 2886.7 6182.48 2870.56ZM1901.73 2944.2C1922.64 2899.4 1958.32 2893.12 1977.92 2904.77C1997.51 2916.44 2005.47 2967.34 1988.19 2995.66C1971.85 3022.45 1950.38 3041.35 1930.78 3029.69C1911.19 3018.03 1885.38 2970.98 1901.73 2944.2ZM1658.34 2947.94C1658.34 2904.01 1686.83 2883.25 1713.74 2884.24C1739.82 2885.2 1765.55 2926.67 1743.74 2963.01C1742.6 2965.58 1741.21 2968.13 1739.56 2970.65C1720.99 2994.31 1716.54 3006.67 1701.91 3009.29C1697.37 3011.06 1692.05 3011.8 1685.16 3011.55C1658.25 3010.56 1658.34 2973.74 1658.34 2947.94ZM2503.11 2821.01C2535.12 2795.15 2608.66 2817.85 2620.32 2883.66C2621.62 2887.9 2622.61 2892.37 2623.25 2897.06C2625.65 2944.43 2633.15 2963.76 2618.46 2982C2614.89 2988.82 2609.33 2995.2 2600.86 3002.04C2567.83 3028.71 2529.83 2984.81 2503.13 2954.13C2457.65 2901.86 2470.07 2847.68 2503.11 2821.01ZM1793.15 2879.58C1810.43 2851.26 1859.72 2834.43 1879.32 2846.09C1898.91 2857.75 1909.95 2891.85 1879.62 2931.04C1863.27 2957.82 1809.1 2957.26 1789.51 2945.6C1769.91 2933.94 1776.8 2906.36 1793.15 2879.58ZM570.321 2800.4C598.228 2721.82 693.873 2712.25 724.818 2750.7C755.763 2789.14 755.629 2853.84 689.309 2902.19C650.374 2930.58 594.896 2971.25 563.951 2932.8C533.006 2894.36 551.12 2874.57 570.321 2800.4ZM4775.41 2423.09C4841.11 2416.59 4901.05 2447.61 4932.21 2498C4937.45 2503.76 4943.85 2516.02 4951.61 2537.16C4967.68 2563.13 4971.19 2571.13 4999.61 2590.93C5001.71 2592.39 5003.72 2593.81 5005.64 2595.19C5061.85 2615.7 5103.53 2665.27 5108.93 2726.74C5116.56 2813.57 5048.91 2891.26 4957.85 2900.27C4949.28 2901.12 4940.81 2901.33 4932.49 2900.94C4904.27 2902.05 4855.17 2893.47 4826.31 2896.32C4806.39 2898.3 4773.97 2907.98 4744.24 2915.84C4730.7 2920.81 4716.3 2924.17 4701.25 2925.66C4698.59 2925.92 4695.93 2926.12 4693.29 2926.26C4692.16 2926.34 4691.07 2926.39 4690.03 2926.41C4603.7 2929.42 4529.86 2868 4522.55 2784.77C4518.81 2742.18 4533.18 2701.79 4559.54 2670.63C4565.05 2663.52 4572.86 2654.71 4583.42 2643.91C4607.91 2618.88 4609.96 2610.33 4621.23 2581.66C4622.52 2574.4 4623.82 2568.1 4625.14 2562.67C4635.06 2490.38 4696.43 2430.91 4775.41 2423.09ZM2982.58 2824.74C2966.68 2755.46 3031.07 2704.8 3070.92 2718.28C3110.77 2731.76 3140.29 2778.34 3114.74 2843.47C3099.74 2881.71 3078.46 2936.34 3038.61 2922.86C2998.76 2909.38 3002.73 2886.86 2982.58 2824.74ZM2660.6 2604.25C2695.97 2597.85 2744.4 2626.98 2748.87 2705C2757.15 2753.78 2692.12 2809.18 2656.75 2815.59C2621.37 2821.99 2601.03 2782.05 2592.75 2733.27C2584 2681.7 2625.22 2610.66 2660.6 2604.25ZM2838.63 2572.02C2874 2565.61 2936.17 2617.93 2944.92 2669.5C2953.2 2718.28 2947.22 2762.99 2911.84 2769.4C2876.47 2775.8 2797.07 2746.55 2788.79 2697.77C2767.31 2622.83 2803.25 2578.42 2838.63 2572.02ZM7511.37 2553.23C7523.73 2517.56 7560.9 2493.6 7601.77 2497.64C7635.77 2501 7663.04 2522.82 7673.75 2551.56C7675.82 2555.02 7677.82 2561.88 7679.62 2573.39C7685.14 2588.2 7686.11 2592.61 7698.53 2605.54C7699.45 2606.49 7700.32 2607.42 7701.16 2608.31C7727.6 2624.42 7743.73 2653.8 7740.24 2685.54C7735.31 2730.37 7693.1 2762.94 7645.98 2758.28C7641.54 2757.85 7637.22 2757.09 7633.03 2756.05C7618.6 2753.76 7594.56 2744.42 7579.63 2742.95C7569.32 2741.93 7551.9 2743.55 7536.02 2744.53C7528.64 2745.68 7520.99 2745.93 7513.19 2745.16C7511.82 2745.02 7510.45 2744.85 7509.1 2744.66C7508.53 2744.58 7507.98 2744.5 7507.46 2744.41C7463.32 2737.2 7432.06 2698.54 7436.79 2655.55C7439.21 2633.55 7450.6 2614.5 7467.15 2601.36C7470.66 2598.31 7475.51 2594.64 7481.96 2590.24C7496.92 2580.01 7498.83 2575.89 7507.45 2562.48C7508.84 2558.92 7510.15 2555.86 7511.37 2553.23ZM98.1675 2494.64C146.141 2489.22 204.619 2558.01 174.688 2630.49C173.303 2635.5 171.472 2640.55 169.153 2645.6C141.681 2693.99 136.927 2717.83 110.899 2726.64C103.073 2731.13 93.5466 2733.95 80.8628 2735.38C31.3638 2740.97 21.413 2673.58 14.3237 2626.39C2.24812 2546.02 48.6685 2500.22 98.1675 2494.64ZM458.531 2552.66C484.48 2464.96 548.03 2443.66 587.073 2459.61C626.116 2475.55 654.673 2566.49 630.847 2623.04C608.307 2676.53 574.22 2717.01 535.177 2701.06C496.134 2685.12 435.99 2606.15 458.531 2552.66ZM3654.28 2472.54C3672.24 2439.32 3712.79 2421.68 3752.47 2432.26C3785.48 2441.07 3808.88 2467 3814.8 2497.09C3816.29 2500.83 3817.16 2507.93 3817.08 2519.58C3820.13 2535.09 3820.38 2539.6 3830.55 2554.36C3831.3 2555.45 3832.01 2556.51 3832.69 2557.53C3856.19 2577.69 3867.36 2609.29 3858.79 2640.05C3846.69 2683.5 3799.79 2708.83 3754.03 2696.62C3749.72 2695.47 3745.58 2694.03 3741.62 2692.33C3727.75 2687.74 3705.52 2674.65 3691.02 2670.78C3681.02 2668.11 3663.57 2666.9 3647.74 2665.3C3640.27 2665.25 3632.67 2664.25 3625.1 2662.24C3623.76 2661.88 3622.44 2661.49 3621.13 2661.08C3620.58 2660.91 3620.05 2660.74 3619.55 2660.56C3577.17 2646.32 3552.56 2603.13 3564.17 2561.47C3570.1 2540.16 3584.41 2523.21 3602.84 2512.91C3606.81 2510.47 3612.19 2507.62 3619.29 2504.31C3635.7 2496.63 3638.25 2492.87 3648.93 2481.03C3650.87 2477.75 3652.65 2474.93 3654.28 2472.54ZM4424.77 2406.04C4466.43 2377.62 4554.02 2412.59 4561.77 2494.14C4562.94 2499.44 4563.72 2505 4564.04 2510.8C4562.3 2568.89 4569.55 2593.24 4549.81 2614.08C4544.78 2622.05 4537.36 2629.3 4526.34 2636.82C4483.36 2666.15 4441.27 2608.78 4411.68 2568.66C4361.28 2500.33 4381.79 2435.38 4424.77 2406.04ZM5785.77 2423.27C5801.48 2388.94 5840.77 2368.64 5881.07 2376.56C5914.59 2383.16 5939.66 2407.49 5947.57 2437.11C5949.3 2440.75 5950.64 2447.77 5951.33 2459.4C5955.41 2474.67 5955.96 2479.15 5967.08 2493.21C5967.9 2494.25 5968.69 2495.25 5969.43 2496.23C5994.22 2514.78 6007.46 2545.57 6000.96 2576.83C5991.77 2620.99 5946.65 2649.38 5900.18 2640.24C5895.8 2639.38 5891.57 2638.22 5887.51 2636.78C5873.36 2633.11 5850.32 2621.53 5835.6 2618.64C5825.44 2616.64 5807.94 2616.59 5792.04 2616.04C5784.59 2616.49 5776.94 2616 5769.25 2614.49C5767.89 2614.22 5766.53 2613.92 5765.2 2613.6C5765.18 2613.59 5765.17 2613.59 5765.15 2613.58C5765.06 2613.56 5764.97 2613.54 5764.87 2613.52C5764.44 2613.41 5764.01 2613.31 5763.61 2613.19C5720.37 2601.8 5692.95 2560.33 5701.76 2517.99C5706.27 2496.33 5719.42 2478.47 5737.14 2466.97C5740.93 2464.26 5746.11 2461.07 5752.96 2457.3C5768.83 2448.55 5771.13 2444.62 5780.99 2432.1C5782.71 2428.7 5784.3 2425.77 5785.77 2423.27ZM7717.34 2539.07C7719.68 2494.06 7767.77 2474.35 7789.73 2489.5C7811.69 2504.65 7821.59 2538.19 7794.69 2573.47C7778.89 2594.19 7756.41 2623.81 7734.45 2608.66C7712.49 2593.51 7718.83 2580.46 7717.34 2539.07ZM242.152 2464.28C265.978 2407.74 351.533 2363.4 390.577 2379.35C429.62 2395.3 459.195 2454.63 414.468 2534.66C391.927 2588.16 292.671 2602.02 253.627 2586.07C214.584 2570.12 219.611 2517.78 242.152 2464.28ZM5010.1 2457.86C4997.5 2371.67 5081.16 2316.13 5128.51 2336.52C5175.86 2356.91 5207.32 2416.73 5169.69 2493.77C5147.6 2539 5116.22 2603.64 5068.87 2583.24C5021.52 2562.85 5028.58 2535.73 5010.1 2457.86ZM7425.56 2453.45C7449.58 2443.24 7490.48 2469.87 7486.15 2512.04C7486.21 2514.85 7486.04 2517.75 7485.62 2520.72C7478.84 2550.03 7480.05 2563.12 7467.92 2571.69C7464.56 2575.23 7460.06 2578.15 7453.71 2580.85C7428.93 2591.38 7413.38 2558 7402.43 2534.64C7383.78 2494.86 7400.77 2463.97 7425.56 2453.45ZM6751.98 2304.6C6784.98 2295.76 6818.2 2306.56 6838.35 2329.68C6841.51 2332.18 6845.8 2337.9 6851.54 2348.03C6861.93 2359.94 6864.39 2363.73 6880.57 2371.45C6881.77 2372.02 6882.91 2372.58 6884.01 2373.12C6914.43 2378.87 6939.88 2400.68 6947.81 2431.61C6959 2475.31 6930.99 2520.66 6885.25 2532.92C6880.94 2534.07 6876.63 2534.89 6872.35 2535.39C6858.04 2538.33 6832.25 2538.08 6817.75 2541.96C6807.75 2544.64 6792.02 2552.3 6777.51 2558.81C6771.01 2562.49 6763.93 2565.43 6756.36 2567.45C6755.03 2567.81 6753.69 2568.13 6752.35 2568.43C6752.27 2568.45 6752.19 2568.46 6752.11 2568.48C6752.09 2568.49 6752.08 2568.49 6752.06 2568.49C6751.6 2568.6 6751.15 2568.69 6750.71 2568.77C6706.88 2577.58 6664 2552.43 6653.27 2510.53C6647.78 2489.1 6651.73 2467.27 6662.57 2449.14C6664.78 2445.04 6668.03 2439.89 6672.51 2433.49C6682.91 2418.65 6683.24 2414.12 6686.59 2398.53C6686.63 2394.71 6686.77 2391.39 6686.99 2388.5C6685.98 2350.76 6712.31 2315.23 6751.98 2304.6ZM3859.84 2491.81C3869.42 2447.76 3920.05 2436.07 3939.28 2454.57C3958.51 2473.06 3962.87 2507.76 3930.62 2538.24C3911.69 2556.13 3884.73 2581.74 3865.5 2563.24C3846.27 2544.75 3854.63 2532.89 3859.84 2491.81ZM5992.15 2428.85C5998.79 2384.26 6048.53 2369.24 6068.95 2386.42C6089.36 2403.59 6096.02 2437.93 6065.86 2470.48C6048.16 2489.59 6022.96 2516.93 6002.54 2499.75C5982.13 2482.57 5989.68 2470.19 5992.15 2428.85ZM7621.22 2427.95C7621.15 2378.51 7650.79 2357.67 7673.48 2359.92C7696.17 2362.16 7724.98 2404.88 7721.36 2437.85C7717.92 2469.04 7706.5 2495.27 7683.82 2493.03C7661.13 2490.78 7617.79 2459.14 7621.22 2427.95ZM3585.71 2360.21C3611.06 2354.01 3647.13 2386.89 3636.05 2427.81C3635.65 2430.59 3635.01 2433.42 3634.12 2436.29C3622.7 2464.12 3621.78 2477.23 3608.43 2483.74C3604.54 2486.68 3599.63 2488.85 3592.92 2490.48C3566.76 2496.87 3556.81 2461.42 3549.78 2436.6C3537.79 2394.33 3559.55 2366.59 3585.71 2360.21ZM7495.48 2415.52C7499.11 2382.55 7536.6 2346.39 7559.29 2348.63C7581.98 2350.87 7606.45 2377.05 7595.62 2425.42C7592.19 2456.61 7542.89 2479.09 7520.21 2476.85C7497.52 2474.61 7492.05 2446.71 7495.48 2415.52ZM1508.94 2035.56C1550.23 1986.98 1623.39 1972.01 1685.25 2003.39C1736.7 2029.49 1766.28 2080.52 1765.54 2132.29C1766.7 2139 1765.64 2151.03 1761.42 2170.26C1761.05 2196.94 1759.88 2204.48 1771.5 2232.43C1772.36 2234.5 1773.18 2236.49 1773.94 2238.41C1805.7 2279.94 1813.11 2336.05 1788.18 2383.88C1752.98 2451.42 1666.63 2476.85 1595.31 2440.68C1588.6 2437.27 1582.26 2433.44 1576.31 2429.24C1555 2416.8 1522.86 2387.39 1500.26 2375.93C1484.67 2368.02 1456.26 2359.91 1430.67 2351.72C1418.35 2349.02 1406.14 2344.73 1394.35 2338.74C1392.26 2337.69 1390.21 2336.58 1388.19 2335.44C1387.33 2334.97 1386.51 2334.5 1385.74 2334.03C1320.72 2295.66 1295.2 2215.7 1328.95 2150.94C1346.21 2117.81 1375.78 2094.82 1409.85 2084.25C1417.26 2081.6 1427.15 2078.79 1440.01 2075.8C1469.81 2068.87 1475.34 2063.54 1497.13 2047.71C1501.48 2042.97 1505.41 2038.94 1508.94 2035.56ZM5709.89 2315.74C5734.77 2307.88 5772.94 2338.29 5764.61 2379.85C5764.39 2382.65 5763.95 2385.52 5763.24 2388.45C5753.7 2416.97 5753.66 2430.12 5740.76 2437.49C5737.08 2440.69 5732.32 2443.18 5725.74 2445.25C5700.06 2453.37 5687.78 2418.65 5679.11 2394.36C5664.35 2352.97 5684.21 2323.85 5709.89 2315.74ZM3782.92 2366.62C3790.82 2317.82 3823.44 2302.04 3845.47 2307.92C3867.5 2313.79 3889.04 2360.6 3880.14 2392.56C3871.72 2422.78 3856.22 2446.83 3834.19 2440.95C3812.16 2435.07 3774.5 2396.85 3782.92 2366.62ZM6571.51 2325.37C6590.39 2307.36 6638.05 2317.85 6648.87 2358.84C6649.91 2361.45 6650.77 2364.22 6651.43 2367.15C6655.42 2396.97 6661.17 2408.79 6652.84 2421.09C6650.94 2425.58 6647.76 2429.91 6642.77 2434.67C6623.29 2453.26 6596.97 2427.5 6578.49 2409.51C6547.01 2378.85 6552.03 2343.96 6571.51 2325.37ZM8508.4 2206.69C8525.18 2172.87 8565.09 2153.81 8605.12 2163C8638.42 2170.65 8662.71 2195.75 8669.68 2225.61C8671.3 2229.3 8672.42 2236.36 8672.74 2248.01C8676.34 2263.4 8676.74 2267.9 8687.42 2282.3C8688.21 2283.36 8688.96 2284.39 8689.67 2285.38C8713.86 2304.71 8726.13 2335.9 8718.65 2366.94C8708.07 2410.79 8662.08 2437.74 8615.92 2427.15C8611.58 2426.15 8607.39 2424.85 8603.37 2423.29C8589.35 2419.18 8566.68 2406.88 8552.05 2403.52C8541.96 2401.2 8524.48 2400.61 8508.6 2399.56C8501.14 2399.77 8493.51 2399.04 8485.87 2397.29C8484.52 2396.98 8483.17 2396.64 8481.85 2396.27C8481.83 2396.26 8481.81 2396.26 8481.8 2396.25C8481.7 2396.23 8481.6 2396.2 8481.51 2396.17C8481.07 2396.05 8480.65 2395.93 8480.24 2395.81C8437.4 2383.05 8411.31 2340.75 8421.45 2298.71C8426.64 2277.21 8440.34 2259.77 8458.41 2248.83C8462.29 2246.25 8467.57 2243.22 8474.53 2239.66C8490.67 2231.42 8493.09 2227.57 8503.35 2215.36C8505.17 2212.01 8506.85 2209.13 8508.4 2206.69ZM4638.51 2156.8C4682.36 2152.46 4738.64 2192.81 4736.42 2288.56C4741.72 2348.97 4656.83 2410.23 4612.98 2414.57C4569.14 2418.91 4548.22 2368.11 4542.92 2307.71C4537.31 2243.85 4594.67 2161.14 4638.51 2156.8ZM3660.83 2334.06C3669.74 2302.11 3712.57 2272.47 3734.6 2278.35C3756.63 2284.22 3776.56 2314.01 3758.06 2359.99C3749.64 2390.22 3697.36 2404.46 3675.33 2398.58C3653.3 2392.71 3652.41 2364.29 3660.83 2334.06ZM4859.16 2134.97C4903.01 2130.63 4973.78 2200.66 4979.39 2264.52C4984.7 2324.92 4972.98 2378.95 4929.14 2383.29C4885.3 2387.63 4791.2 2344.07 4785.89 2283.66C4767.03 2190 4815.32 2139.3 4859.16 2134.97ZM5907.09 2309.05C5911.74 2259.83 5943.23 2241.92 5965.6 2246.32C5987.97 2250.72 6012.58 2295.99 6005.82 2328.47C5999.43 2359.19 5985.55 2384.21 5963.18 2379.81C5940.81 2375.41 5900.69 2339.77 5907.09 2309.05ZM6874.74 2302.62C6861.06 2259.67 6899.11 2224.28 6925 2230.71C6950.89 2237.15 6971.99 2265.04 6959.25 2307.54C6951.77 2332.49 6941.18 2368.14 6915.29 2361.71C6889.4 2355.27 6890.73 2340.83 6874.74 2302.62ZM5783.11 2284.67C5789.87 2252.19 5830.65 2219.78 5853.02 2224.18C5875.39 2228.58 5897.25 2256.98 5881.84 2304.09C5875.45 2334.81 5824.23 2352.48 5801.86 2348.08C5779.49 2343.68 5776.72 2315.39 5783.11 2284.67ZM6659.69 2180.14C6681.72 2174.23 6713.85 2190.11 6720.76 2239.18C6728.55 2269.58 6690.35 2308 6668.33 2313.9C6646.31 2319.8 6631.35 2295.63 6623.57 2265.23C6615.34 2233.09 6637.67 2186.04 6659.69 2180.14ZM8714.5 2218.75C8722.54 2174.4 8772.73 2160.95 8792.59 2178.76C8812.46 2196.57 8818.03 2231.1 8786.87 2262.68C8768.57 2281.22 8742.52 2307.76 8722.66 2289.95C8702.79 2272.14 8710.73 2260 8714.5 2218.75ZM1841.79 2139.33C1873.03 2069.92 1960.77 2068.33 1986.06 2105.62C2011.36 2142.9 2006.42 2201.76 1942.48 2240.82C1904.94 2263.75 1851.43 2296.61 1826.14 2259.33C1800.84 2222.05 1818.8 2205.39 1841.79 2139.33ZM6770.53 2150.44C6792.55 2144.54 6834.58 2174.35 6842.81 2206.48C6850.59 2236.88 6849.15 2265.45 6827.13 2271.35C6805.11 2277.25 6753.4 2262.92 6745.61 2232.52C6728.11 2186.29 6748.5 2156.34 6770.53 2150.44ZM8435.94 2096.82C8461.06 2089.75 8498.25 2121.34 8488.61 2162.62C8488.31 2165.41 8487.77 2168.27 8486.98 2171.17C8476.54 2199.38 8476.09 2212.52 8462.97 2219.48C8459.18 2222.56 8454.35 2224.9 8447.71 2226.77C8421.79 2234.07 8410.6 2198.99 8402.7 2174.43C8389.25 2132.6 8410.02 2104.12 8435.94 2096.82ZM8633.25 2096.34C8639.45 2047.29 8671.49 2030.38 8693.71 2035.48C8715.93 2040.58 8739.1 2086.61 8731.32 2118.85C8723.96 2149.36 8709.31 2173.93 8687.09 2168.83C8664.87 2163.73 8625.89 2126.84 8633.25 2096.34ZM8510.1 2068.07C8517.88 2035.82 8559.66 2004.71 8581.88 2009.81C8604.1 2014.91 8625.05 2043.98 8608.18 2090.58C8600.82 2121.09 8549.07 2137.14 8526.85 2132.04C8504.63 2126.94 8502.75 2098.57 8510.1 2068.07ZM2767.35 1696.22C2814.6 1693.09 2856.86 1716.73 2878.03 1753.58C2881.65 1757.84 2885.95 1766.77 2891.02 1782.1C2901.94 1801.09 2904.27 1806.9 2924.19 1821.76C2925.66 1822.86 2927.07 1823.92 2928.41 1824.96C2968.23 1840.97 2996.97 1877.47 2999.41 1921.67C3002.86 1984.1 2952.56 2038.22 2887.06 2042.57C2880.9 2042.98 2874.82 2042.93 2868.86 2042.46C2848.6 2042.6 2813.6 2035.31 2792.85 2036.69C2778.53 2037.64 2755.08 2043.82 2733.58 2048.76C2723.76 2052.01 2713.34 2054.09 2702.51 2054.81C2700.59 2054.94 2698.68 2055.02 2696.78 2055.06C2695.97 2055.09 2695.19 2055.1 2694.44 2055.09C2632.48 2055.24 2580.97 2009.5 2577.66 1949.65C2575.97 1919.03 2587.21 1890.41 2606.83 1868.68C2610.95 1863.71 2616.75 1857.58 2624.58 1850.08C2642.71 1832.7 2644.38 1826.62 2653.13 1806.33C2654.22 1801.16 2655.3 1796.67 2656.37 1792.8C2665.16 1741.21 2710.54 1699.99 2767.35 1696.22ZM1758.52 1905.6C1788.66 1827.74 1848.07 1813.1 1882.41 1830.51C1916.74 1847.93 1935.96 1932.8 1910.07 1982.47C1885.58 2029.47 1851.55 2063.76 1817.21 2046.34C1782.88 2028.92 1734.03 1952.6 1758.52 1905.6ZM1434.96 1825.98C1479.02 1824.63 1527.1 1891.57 1494.48 1955.28C1492.84 1959.74 1490.8 1964.2 1488.31 1968.62C1459.71 2010.6 1453.61 2031.95 1429.28 2038.02C1421.82 2041.53 1412.94 2043.38 1401.29 2043.74C1355.84 2045.13 1351.8 1983.08 1348.87 1939.62C1343.87 1865.59 1389.51 1827.38 1434.96 1825.98ZM7517.38 1635.81C7558.31 1614.55 7605.23 1619.13 7638.5 1643.73C7643.4 1646.1 7650.72 1652.39 7661.23 1664.08C7678.39 1676.76 7682.74 1681.03 7706.3 1686.5C7708.05 1686.9 7709.72 1687.31 7711.32 1687.7C7753.09 1686.43 7792.98 1707.76 7812.42 1746.23C7839.89 1800.55 7816.17 1868.48 7759.45 1897.94C7754.11 1900.71 7748.67 1903.04 7743.18 1904.95C7725.17 1912.99 7691.1 1920.16 7673.13 1929.5C7660.72 1935.94 7642.22 1950.61 7624.98 1963.41C7617.49 1970.15 7609.01 1976.08 7599.64 1980.95C7597.97 1981.82 7596.29 1982.64 7594.61 1983.42C7593.9 1983.76 7593.22 1984.07 7592.55 1984.35C7537.35 2008.69 7473.54 1988.01 7447.21 1935.93C7433.74 1909.28 7432.58 1879.36 7441.59 1852.31C7443.32 1846.27 7446.1 1838.54 7450.15 1828.8C7459.54 1806.21 7458.66 1800.14 7458.53 1778.62C7457.48 1773.58 7456.69 1769.15 7456.14 1765.29C7443.83 1715.84 7468.19 1661.36 7517.38 1635.81ZM233.678 1674.65C248.452 1628.81 295.178 1597.24 347.403 1601.26C390.848 1604.6 426.225 1631.67 440.667 1668.01C443.411 1672.36 446.153 1681.05 448.761 1695.68C456.21 1714.41 457.57 1720 473.757 1736.14C474.954 1737.34 476.097 1738.49 477.188 1739.61C511.346 1759.41 532.722 1796.43 529.149 1836.99C524.102 1894.29 471.197 1936.98 410.983 1932.35C405.316 1931.91 399.786 1931.07 394.421 1929.86C375.959 1927.33 345.042 1916.1 325.962 1914.63C312.795 1913.62 290.632 1916.17 270.411 1917.85C261.036 1919.52 251.278 1920.05 241.32 1919.29C239.551 1919.15 237.796 1918.97 236.055 1918.76C235.322 1918.68 234.619 1918.59 233.948 1918.48C177.5 1910.49 136.593 1862.08 141.431 1807.15C143.907 1779.04 157.899 1754.45 178.621 1737.23C183.021 1733.25 189.107 1728.43 197.21 1722.63C216.005 1709.18 218.325 1703.87 228.951 1686.53C230.621 1681.97 232.195 1678.02 233.678 1674.65ZM1568.23 1809.08C1594.12 1759.41 1675.26 1725.44 1709.6 1742.86C1743.93 1760.28 1766.43 1816.46 1719.77 1885.95C1695.28 1932.94 1603.94 1938.16 1569.6 1920.75C1535.27 1903.33 1543.74 1856.08 1568.23 1809.08ZM9190.65 1423.84C9231.39 1367.1 9309.93 1344.23 9380.27 1372.96C9438.78 1396.85 9475.62 1449.93 9479.44 1506.51C9481.3 1513.73 9481.23 1526.97 9478.34 1548.34C9480.32 1577.5 9479.71 1585.84 9494.9 1615.31C9496.02 1617.49 9497.09 1619.59 9498.1 1621.62C9536.48 1664.13 9549.58 1724.73 9526.64 1779.17C9494.24 1856.05 9402.24 1891.53 9321.14 1858.41C9313.51 1855.29 9306.25 1851.68 9299.38 1847.63C9275.01 1835.94 9237.29 1806.71 9211.59 1796.21C9193.85 1788.97 9162.09 1782.65 9133.41 1776C9119.73 1774.15 9106.03 1770.55 9092.63 1765.08C9090.27 1764.11 9087.94 1763.1 9085.65 1762.04C9084.65 1761.59 9083.7 1761.14 9082.81 1760.69C9008.4 1724.61 8973.39 1639.6 9004.45 1565.89C9020.34 1528.18 9050.57 1500.43 9086.82 1485.85C9094.67 1482.29 9105.21 1478.34 9118.99 1473.92C9150.91 1463.69 9156.48 1457.38 9178.84 1438.16C9183.18 1432.59 9187.1 1427.85 9190.65 1423.84ZM7285.58 1715.69C7305.22 1686.45 7371.09 1686.42 7397.27 1737.28C7399.4 1740.42 7401.34 1743.82 7403.06 1747.5C7417 1785.63 7428.01 1799.54 7420.62 1818.17C7419.43 1824.64 7416.49 1831.27 7411.3 1839C7391.03 1869.17 7348.85 1842.88 7319.26 1824.54C7268.86 1793.3 7265.31 1745.86 7285.58 1715.69ZM2516.36 1675.86C2546.88 1656.45 2608.86 1683.55 2612.53 1742.19C2613.25 1746.02 2613.67 1750.03 2613.77 1754.19C2611.17 1795.81 2615.81 1813.43 2601.17 1827.91C2597.38 1833.51 2591.89 1838.54 2583.82 1843.67C2552.32 1863.7 2523.47 1821.59 2503.19 1792.14C2468.65 1741.98 2484.86 1695.89 2516.36 1675.86ZM2934.8 1726.6C2927.77 1664.51 2989.03 1626.64 3022.51 1642.36C3055.98 1658.08 3077.15 1701.69 3048.38 1756.05C3031.49 1787.97 3007.49 1833.58 2974.02 1817.86C2940.55 1802.14 2946.24 1782.86 2934.8 1726.6ZM495.903 1650.88C497.646 1593.42 558.404 1566.97 586.824 1585.68C615.243 1604.38 628.8 1646.87 595.471 1692.6C575.904 1719.45 548.068 1757.84 519.649 1739.13C491.23 1720.42 498.944 1703.62 495.903 1650.88ZM121.519 1549.78C151.863 1536.11 204.75 1568.93 200.396 1622.81C200.544 1626.39 200.408 1630.09 199.951 1633.9C192.127 1671.44 194.031 1688.09 178.818 1699.36C174.629 1703.97 168.967 1707.83 160.938 1711.44C129.628 1725.55 108.884 1683.42 94.2778 1653.95C69.3991 1603.74 90.2094 1563.89 121.519 1549.78ZM6108.52 1420.84C6138.84 1405.09 6173.61 1408.48 6198.26 1426.7C6201.89 1428.46 6207.32 1433.12 6215.11 1441.79C6227.82 1451.18 6231.04 1454.34 6248.5 1458.4C6249.79 1458.7 6251.03 1458.99 6252.22 1459.29C6283.16 1458.34 6312.72 1474.15 6327.13 1502.65C6347.47 1542.9 6329.9 1593.23 6287.88 1615.06C6283.92 1617.11 6279.89 1618.84 6275.81 1620.25C6262.47 1626.21 6237.23 1631.52 6223.92 1638.44C6214.73 1643.21 6201.02 1654.08 6188.25 1663.57C6182.69 1668.56 6176.41 1672.95 6169.46 1676.56C6168.23 1677.2 6166.99 1677.81 6165.74 1678.39C6165.71 1678.41 6165.67 1678.42 6165.64 1678.44C6165.57 1678.47 6165.51 1678.5 6165.44 1678.53C6165.03 1678.72 6164.63 1678.91 6164.23 1679.07C6123.33 1697.12 6076.04 1681.8 6056.53 1643.2C6046.55 1623.46 6045.69 1601.29 6052.37 1581.25C6053.65 1576.78 6055.71 1571.05 6058.71 1563.83C6065.66 1547.1 6065.01 1542.59 6064.91 1526.65C6064.14 1522.92 6063.55 1519.64 6063.14 1516.78C6054.02 1480.14 6072.07 1439.77 6108.52 1420.84ZM2675.39 1502.13C2706.92 1500.04 2746.33 1530.27 2742.52 1598.87C2744.92 1642.3 2682.63 1684.25 2651.1 1686.34C2619.56 1688.44 2605.74 1651.53 2603.34 1608.1C2600.81 1562.19 2643.85 1504.22 2675.39 1502.13ZM7359.54 1498.62C7386.85 1484.44 7433.82 1496.01 7457.21 1558.68C7476.31 1596.48 7437.15 1658.22 7409.84 1672.41C7382.54 1686.59 7355.8 1659.08 7336.69 1621.28C7316.49 1581.32 7332.24 1512.81 7359.54 1498.62ZM2834.09 1491.6C2865.62 1489.51 2914.74 1541.36 2917.27 1587.27C2919.67 1630.71 2910.02 1669.17 2878.49 1671.26C2846.96 1673.35 2780.5 1639.94 2778.1 1596.51C2766.76 1528.92 2802.55 1493.69 2834.09 1491.6ZM7723.91 1488.09C7759.91 1489.04 7795.83 1519.66 7791.4 1579.38C7788.81 1614.44 7785.22 1664.5 7749.23 1663.56C7713.23 1662.61 7710.78 1643.19 7678.6 1597.49C7648.07 1544.86 7687.92 1487.15 7723.91 1488.09ZM9563.32 1507.4C9591.23 1428.82 9686.87 1419.25 9717.82 1457.7C9748.76 1496.14 9748.63 1560.84 9682.31 1609.19C9643.37 1637.58 9587.9 1678.25 9556.95 1639.8C9526.01 1601.36 9544.12 1581.57 9563.32 1507.4ZM4641.2 1365.88C4661.58 1334.09 4703.32 1319.51 4742.11 1333.01C4774.38 1344.24 4795.78 1371.85 4799.46 1402.29C4800.67 1406.14 4801 1413.28 4800.05 1424.89C4801.95 1440.58 4801.86 1445.09 4810.9 1460.57C4811.57 1461.72 4812.21 1462.82 4812.81 1463.89C4834.74 1485.74 4843.54 1518.08 4832.71 1548.12C4817.41 1590.55 4768.76 1612.33 4724.03 1596.76C4719.82 1595.29 4715.8 1593.55 4711.97 1591.55C4698.48 1585.94 4677.29 1571.24 4663.12 1566.31C4653.34 1562.9 4636.03 1560.4 4620.37 1557.63C4612.92 1557.02 4605.42 1555.47 4598.02 1552.89C4596.58 1552.39 4595.16 1551.85 4593.76 1551.29C4593.35 1551.12 4592.95 1550.96 4592.56 1550.79C4551.38 1533.43 4530.07 1488.54 4544.73 1447.87C4552.24 1427.07 4567.76 1411.23 4586.91 1402.32C4591.05 1400.18 4596.63 1397.74 4603.94 1394.96C4620.88 1388.53 4623.71 1384.97 4635.23 1373.95C4637.42 1370.82 4639.4 1368.15 4641.2 1365.88ZM370.279 1511.86C368.813 1448.83 406.031 1421.44 435.02 1423.68C464.009 1425.91 501.934 1479.57 498.222 1521.71C494.711 1561.57 480.875 1595.33 451.886 1593.1C422.897 1590.87 366.768 1551.73 370.279 1511.86ZM5936.77 1480.02C5951.32 1458.36 6000.13 1458.33 6019.53 1496.02C6021.11 1498.35 6022.55 1500.87 6023.82 1503.59C6034.14 1531.85 6042.31 1542.15 6036.82 1555.95C6035.94 1560.75 6033.77 1565.66 6029.92 1571.39C6014.9 1593.74 5983.65 1574.26 5961.73 1560.67C5924.38 1537.53 5921.75 1502.38 5936.77 1480.02ZM7496.97 1427.24C7524.28 1413.05 7588.34 1440.12 7608.54 1480.07C7627.65 1517.87 7634.06 1555.94 7606.76 1570.12C7579.45 1584.31 7507.13 1580.47 7488.02 1542.67C7451.5 1486.82 7469.67 1441.42 7496.97 1427.24ZM209.62 1499.49C213.331 1457.35 260.135 1410.21 289.125 1412.44C318.114 1414.68 350.039 1447.38 337.563 1509.34C334.051 1549.21 271.828 1579.24 242.838 1577.01C213.85 1574.78 206.108 1539.36 209.62 1499.49ZM1074.99 1252.54C1097.1 1221.93 1139.6 1209.69 1177.57 1225.32C1209.17 1238.33 1229 1267.08 1230.98 1297.68C1231.98 1301.59 1231.92 1308.74 1230.32 1320.28C1231.34 1336.05 1231 1340.55 1239.17 1356.51C1239.78 1357.69 1240.35 1358.83 1240.89 1359.92C1261.58 1382.96 1268.56 1415.74 1256.08 1445.13C1238.45 1486.65 1188.66 1505.69 1144.87 1487.66C1140.75 1485.96 1136.83 1484 1133.12 1481.8C1119.96 1475.44 1099.62 1459.58 1085.74 1453.87C1076.17 1449.93 1059.02 1446.47 1043.54 1442.83C1036.14 1441.81 1028.73 1439.84 1021.48 1436.86C1020.2 1436.33 1018.94 1435.78 1017.7 1435.2C1017.63 1435.17 1017.57 1435.13 1017.5 1435.1C1017.48 1435.09 1017.45 1435.08 1017.42 1435.07C1016.99 1434.87 1016.57 1434.67 1016.18 1434.47C976.011 1414.85 957.217 1368.84 974.12 1329.04C982.767 1308.68 999.15 1293.73 1018.77 1285.9C1023.01 1283.99 1028.72 1281.87 1036.18 1279.5C1053.45 1274.02 1056.47 1270.62 1068.59 1260.26C1070.94 1257.26 1073.07 1254.7 1074.99 1252.54ZM4844.76 1400.36C4857.59 1357.15 4908.95 1349.26 4926.75 1369.13C4944.55 1389 4946.32 1423.93 4911.9 1451.93C4891.69 1468.36 4862.9 1491.89 4845.1 1472.02C4827.3 1452.15 4836.51 1440.95 4844.76 1400.36ZM5991.57 1319.19C6011.81 1308.68 6046.6 1317.25 6063.93 1363.69C6078.09 1391.69 6049.07 1437.44 6028.84 1447.95C6008.61 1458.46 5988.8 1438.08 5974.64 1410.07C5959.68 1380.47 5971.34 1329.7 5991.57 1319.19ZM9091.17 1201.64C9139.14 1196.22 9197.62 1265.01 9167.69 1337.49C9166.3 1342.5 9164.47 1347.55 9162.15 1352.6C9134.68 1400.99 9129.93 1424.83 9103.9 1433.64C9096.07 1438.13 9086.55 1440.95 9073.86 1442.38C9024.36 1447.97 9014.41 1380.58 9007.32 1333.39C8995.25 1253.02 9041.67 1207.22 9091.17 1201.64ZM6261.55 1311.39C6288.22 1312.09 6314.83 1334.78 6311.55 1379.03C6309.63 1405.01 6306.97 1442.09 6280.3 1441.4C6253.63 1440.7 6251.82 1426.31 6227.97 1392.44C6205.35 1353.45 6234.88 1310.69 6261.55 1311.39ZM9451.53 1259.66C9477.48 1171.96 9541.03 1150.66 9580.07 1166.61C9619.12 1182.55 9647.67 1273.49 9623.85 1330.04C9601.31 1383.53 9567.22 1424.01 9528.18 1408.06C9489.13 1392.12 9428.99 1313.15 9451.53 1259.66ZM3485.52 1142.84C3515.84 1127.09 3550.61 1130.48 3575.26 1148.7C3578.89 1150.46 3584.32 1155.12 3592.11 1163.79C3604.82 1173.18 3608.04 1176.34 3625.5 1180.4C3626.79 1180.7 3628.03 1180.99 3629.22 1181.29C3660.17 1180.34 3689.72 1196.15 3704.13 1224.65C3724.47 1264.9 3706.9 1315.23 3664.88 1337.06C3660.92 1339.11 3656.89 1340.84 3652.81 1342.25C3639.47 1348.21 3614.23 1353.52 3600.92 1360.44C3591.73 1365.21 3578.02 1376.08 3565.25 1385.56C3559.7 1390.56 3553.42 1394.95 3546.46 1398.56C3545.24 1399.2 3544 1399.81 3542.76 1400.38C3542.69 1400.41 3542.62 1400.44 3542.55 1400.48C3542.53 1400.49 3542.5 1400.5 3542.48 1400.51C3542.04 1400.72 3541.61 1400.91 3541.19 1401.09C3500.3 1419.11 3453.03 1403.79 3433.53 1365.2C3423.55 1345.46 3422.69 1323.28 3429.37 1303.24C3430.65 1298.77 3432.71 1293.04 3435.71 1285.83C3442.66 1269.1 3442.01 1264.59 3441.91 1248.65C3441.14 1244.92 3440.55 1241.64 3440.14 1238.78C3431.02 1202.14 3449.07 1161.77 3485.52 1142.84ZM4581.16 1248.77C4606.9 1244.48 4640.43 1279.94 4626.34 1319.92C4625.74 1322.67 4624.89 1325.45 4623.78 1328.24C4610.33 1355.14 4608.45 1368.15 4594.65 1373.64C4590.55 1376.29 4585.49 1378.09 4578.68 1379.22C4552.12 1383.65 4544.83 1347.56 4539.66 1322.28C4530.85 1279.24 4554.6 1253.2 4581.16 1248.77ZM1276.32 1298.27C1291.53 1255.84 1343.25 1250.81 1359.92 1271.64C1376.59 1292.47 1376.42 1327.45 1340.49 1353.49C1319.4 1368.77 1289.35 1390.67 1272.68 1369.84C1256.01 1349.01 1265.83 1338.34 1276.32 1298.27ZM6093.4 1266.3C6113.63 1255.79 6161.1 1275.84 6176.06 1305.44C6190.22 1333.45 6194.97 1361.66 6174.74 1372.17C6154.51 1382.68 6100.92 1379.83 6086.77 1351.83C6059.71 1310.45 6073.17 1276.81 6093.4 1266.3ZM4777.35 1269.81C4788.86 1221.73 4822.56 1208.42 4844.09 1215.92C4865.62 1223.41 4883.63 1271.69 4872.38 1302.9C4861.74 1332.42 4844.49 1355.24 4822.96 1347.74C4801.43 1340.25 4766.71 1299.34 4777.35 1269.81ZM3313.77 1202.02C3328.32 1180.36 3377.13 1180.33 3396.52 1218.02C3398.1 1220.35 3399.54 1222.87 3400.82 1225.59C3411.14 1253.84 3419.3 1264.15 3413.82 1277.95C3412.94 1282.75 3410.77 1287.66 3406.92 1293.39C3391.9 1315.74 3360.65 1296.26 3338.73 1282.67C3301.38 1259.53 3298.75 1224.38 3313.77 1202.02ZM9235.15 1171.28C9258.98 1114.74 9344.53 1070.4 9383.58 1086.35C9422.62 1102.3 9452.2 1161.63 9407.47 1241.66C9384.93 1295.16 9285.67 1309.02 9246.63 1293.07C9207.58 1277.12 9212.61 1224.78 9235.15 1171.28ZM4658.02 1228.28C4669.27 1197.07 4714.19 1170.7 4735.73 1178.2C4757.26 1185.69 4774.91 1216.88 4753.05 1261.36C4742.41 1290.88 4689.22 1301.19 4667.69 1293.69C4646.16 1286.2 4647.38 1257.8 4658.02 1228.28ZM1021.55 1132.27C1047.49 1129.41 1078.99 1166.68 1062.71 1205.82C1061.95 1208.53 1060.96 1211.25 1059.69 1213.98C1044.77 1240.1 1042.16 1252.98 1028.08 1257.7C1023.84 1260.12 1018.69 1261.63 1011.83 1262.38C985.063 1265.33 979.785 1228.89 976.025 1203.37C969.619 1159.9 994.783 1135.21 1021.55 1132.27ZM1216.27 1164.18C1230.43 1116.81 1264.82 1105.4 1285.9 1114.08C1306.98 1122.76 1322.28 1171.96 1309.31 1202.49C1297.05 1231.37 1278.56 1253.2 1257.48 1244.52C1236.39 1235.84 1204 1193.06 1216.27 1164.18ZM1099.43 1116.08C1112.4 1085.55 1158.72 1061.71 1179.8 1070.39C1200.88 1079.07 1216.78 1111.19 1192.48 1154.39C1180.21 1183.27 1126.53 1190.61 1105.45 1181.93C1084.37 1173.25 1087.17 1144.96 1099.43 1116.08ZM3368.57 1041.19C3388.81 1030.68 3423.6 1039.25 3440.93 1085.69C3455.09 1113.69 3426.07 1159.44 3405.84 1169.95C3385.61 1180.46 3365.8 1160.08 3351.64 1132.07C3336.68 1102.47 3348.34 1051.7 3368.57 1041.19ZM3638.55 1033.39C3665.22 1034.09 3691.83 1056.78 3688.55 1101.03C3686.63 1127.01 3683.97 1164.09 3657.3 1163.4C3630.63 1162.7 3628.81 1148.31 3604.97 1114.44C3582.35 1075.45 3611.88 1032.69 3638.55 1033.39ZM5314.89 846.185C5329.66 800.353 5376.39 768.775 5428.61 772.795C5472.06 776.14 5507.44 803.207 5521.88 839.544C5524.62 843.895 5527.36 852.592 5529.97 867.219C5537.42 885.946 5538.78 891.543 5554.97 907.684C5556.16 908.877 5557.31 910.034 5558.4 911.153C5592.56 930.954 5613.93 967.965 5610.36 1008.53C5605.31 1065.83 5552.41 1108.52 5492.19 1103.89C5486.53 1103.45 5481 1102.61 5475.63 1101.4C5457.17 1098.87 5426.25 1087.64 5407.17 1086.17C5394.01 1085.16 5371.84 1087.71 5351.62 1089.39C5342.24 1091.06 5332.49 1091.59 5322.53 1090.83C5320.76 1090.69 5319.01 1090.51 5317.27 1090.3C5316.53 1090.22 5315.82 1090.13 5315.15 1090.02C5258.7 1082.03 5217.8 1033.62 5222.64 978.687C5225.12 950.584 5239.11 925.996 5259.82 908.781C5264.22 904.793 5270.31 899.973 5278.42 894.17C5297.22 880.722 5299.54 875.408 5310.16 858.073C5311.83 853.507 5313.41 849.562 5314.89 846.185ZM3470.4 988.3C3490.63 977.791 3538.1 997.842 3553.06 1027.44C3567.22 1055.45 3571.97 1083.66 3551.74 1094.17C3531.51 1104.68 3477.92 1101.83 3463.77 1073.83C3436.71 1032.45 3450.17 998.81 3470.4 988.3ZM6457.6 688.305C6488.82 639.609 6552.76 617.263 6612.18 637.947C6661.6 655.152 6694.39 697.429 6700.02 744.052C6701.88 749.943 6702.39 760.887 6700.94 778.686C6703.84 802.718 6703.71 809.635 6717.56 833.344C6718.58 835.096 6719.55 836.79 6720.47 838.423C6754.07 871.894 6767.55 921.433 6750.96 967.451C6727.53 1032.44 6653 1065.8 6584.49 1041.95C6578.04 1039.71 6571.87 1037.04 6566.01 1033.98C6545.35 1025.38 6512.89 1002.86 6491.18 995.307C6476.2 990.092 6449.68 986.259 6425.68 982.009C6414.28 981.079 6402.79 978.701 6391.46 974.757C6389.45 974.06 6387.48 973.32 6385.53 972.542C6384.7 972.221 6383.9 971.894 6383.15 971.563C6320.04 944.979 6287.38 876.208 6309.84 813.894C6321.34 782.012 6345.13 757.743 6374.47 744.105C6380.8 740.825 6389.35 737.097 6400.54 732.847C6426.49 722.993 6430.81 717.533 6448.47 700.66C6451.81 695.87 6454.85 691.772 6457.6 688.305ZM4147.56 536.323C4200 517.143 4255.63 529.909 4291.78 564.605C4297.29 568.216 4305.11 576.905 4315.93 592.586C4334.57 610.467 4339.13 616.273 4366.58 626.496C4368.61 627.251 4370.56 627.993 4372.42 628.718C4422.78 633.661 4467.37 665.468 4484.76 714.676C4509.31 784.178 4470.3 862.072 4397.62 888.658C4390.78 891.16 4383.88 893.118 4376.98 894.555C4354.1 901.416 4312.08 904.745 4289.05 913.168C4273.16 918.982 4248.67 933.732 4225.98 946.434C4215.94 953.368 4204.84 959.172 4192.82 963.569C4190.68 964.352 4188.53 965.079 4186.38 965.756C4185.5 966.048 4184.64 966.309 4183.81 966.541C4113.73 987.227 4040.29 952.502 4016.75 885.864C4004.7 851.774 4007.95 815.665 4022.97 784.582C4025.98 777.594 4030.52 768.739 4036.9 757.666C4051.67 731.997 4051.55 724.567 4054.73 698.706C4054.25 692.493 4053.99 687.056 4053.93 682.33C4046.81 621.032 4084.52 559.381 4147.56 536.323ZM1891.52 697.835C1921.84 682.086 1956.61 685.475 1981.26 703.703C1984.89 705.465 1990.32 710.124 1998.11 718.787C2010.82 728.177 2014.04 731.344 2031.5 735.396C2032.79 735.696 2034.03 735.992 2035.22 736.286C2066.16 735.34 2095.72 751.147 2110.13 779.647C2130.47 819.9 2112.9 870.227 2070.88 892.056C2066.92 894.111 2062.89 895.839 2058.81 897.251C2045.47 903.208 2020.23 908.521 2006.92 915.438C1997.73 920.212 1984.02 931.082 1971.24 940.569C1965.69 945.563 1959.41 949.953 1952.46 953.563C1951.24 954.201 1950 954.806 1948.76 955.381C1948.69 955.412 1948.63 955.442 1948.56 955.472C1948.54 955.486 1948.51 955.499 1948.48 955.513C1948.04 955.719 1947.61 955.913 1947.19 956.088C1906.3 974.108 1859.03 958.788 1839.53 920.205C1829.55 900.457 1828.69 878.284 1835.37 858.241C1836.65 853.766 1838.71 848.041 1841.71 840.83C1848.66 824.095 1848.01 819.595 1847.91 803.652C1847.14 799.919 1846.55 796.64 1846.14 793.776C1837.02 757.135 1855.07 716.767 1891.52 697.835ZM5577.11 822.423C5578.86 764.963 5639.61 738.512 5668.03 757.217C5696.45 775.923 5710.01 818.414 5676.68 864.142C5657.12 890.988 5629.28 929.377 5600.86 910.67C5572.44 891.964 5580.16 875.156 5577.11 822.423ZM5202.73 721.326C5233.07 707.653 5285.96 740.468 5281.61 794.35C5281.75 797.931 5281.62 801.632 5281.16 805.438C5273.34 842.979 5275.24 859.633 5260.03 870.899C5255.84 875.506 5250.18 879.366 5242.15 882.984C5210.84 897.092 5190.09 854.963 5175.49 825.487C5150.61 775.278 5171.42 735.434 5202.73 721.326ZM7836.52 612.835C7866.84 597.085 7901.61 600.475 7926.27 618.704C7929.89 620.467 7935.32 625.125 7943.11 633.787C7955.82 643.177 7959.04 646.344 7976.5 650.396C7977.79 650.696 7979.03 650.992 7980.22 651.286C8011.16 650.339 8040.72 666.147 8055.13 694.647C8075.47 734.9 8057.9 785.227 8015.88 807.056C8011.92 809.111 8007.89 810.839 8003.81 812.251C7990.47 818.208 7965.23 823.521 7951.92 830.438C7942.73 835.212 7929.02 846.085 7916.24 855.573C7910.69 860.565 7904.41 864.954 7897.46 868.563C7896.23 869.204 7894.99 869.812 7893.74 870.39C7893.71 870.406 7893.67 870.42 7893.64 870.436C7893.58 870.466 7893.51 870.497 7893.45 870.527C7893.02 870.728 7892.6 870.917 7892.19 871.088C7851.3 889.108 7804.03 873.788 7784.53 835.205C7774.55 815.457 7773.69 793.284 7780.37 773.241C7781.65 768.766 7783.71 763.041 7786.71 755.83C7793.66 739.095 7793.01 734.595 7792.91 718.652C7792.14 714.921 7791.55 711.643 7791.14 708.781C7782.02 672.139 7800.07 631.768 7836.52 612.835ZM6769.42 741.12C6789.06 674.923 6867.74 662.836 6895 693.275C6922.27 723.714 6924.99 777.217 6872.26 820.101C6841.3 845.277 6797.2 881.325 6769.94 850.886C6742.67 820.447 6756.78 803.292 6769.42 741.12ZM1719.77 757.024C1734.32 735.361 1783.13 735.333 1802.52 773.02C1804.1 775.345 1805.54 777.868 1806.82 780.593C1817.14 808.845 1825.3 819.147 1819.82 832.953C1818.94 837.75 1816.77 842.661 1812.92 848.388C1797.9 870.741 1766.65 851.264 1744.73 837.674C1707.38 814.527 1704.75 779.377 1719.77 757.024ZM2788.68 526.648C2803.45 480.815 2850.18 449.234 2902.4 453.254C2945.85 456.599 2981.23 483.668 2995.67 520.005C2998.41 524.356 3001.15 533.053 3003.76 547.679C3011.21 566.405 3012.57 572.003 3028.76 588.144C3029.95 589.337 3031.1 590.494 3032.19 591.613C3066.35 611.414 3087.72 648.426 3084.15 688.994C3079.1 746.291 3026.2 788.983 2965.98 784.347C2960.32 783.911 2954.79 783.07 2949.42 781.859C2930.96 779.331 2900.04 768.1 2880.96 766.631C2867.8 765.618 2845.63 768.17 2825.41 769.85C2816.04 771.524 2806.28 772.053 2796.32 771.287C2794.57 771.152 2792.82 770.976 2791.1 770.764C2790.34 770.681 2789.6 770.585 2788.91 770.475C2732.48 762.471 2691.59 714.068 2696.43 659.147C2698.91 631.04 2712.9 606.447 2733.62 589.232C2738.02 585.246 2744.11 580.429 2752.21 574.63C2771 561.182 2773.33 555.868 2783.95 538.533C2785.62 533.968 2787.2 530.025 2788.68 526.648ZM3856.79 596.311C3884.91 564.244 3964.03 574.413 3987.58 639.563C3989.65 643.661 3991.46 648.049 3992.95 652.731C4003.77 700.679 4014.85 719.088 4003.08 740.316C4000.64 747.909 3996.09 755.413 3988.65 763.892C3959.63 796.98 3913.06 758.87 3880.36 732.255C3824.68 686.921 3827.78 629.399 3856.79 596.311ZM7664.77 672.024C7679.32 650.36 7728.13 650.332 7747.53 688.025C7749.11 690.349 7750.55 692.87 7751.82 695.593C7762.14 723.845 7770.3 734.147 7764.82 747.953C7763.94 752.75 7761.77 757.661 7757.92 763.388C7742.9 785.741 7711.65 766.264 7689.73 752.674C7652.38 729.527 7649.75 694.377 7664.77 672.024ZM5451.49 683.401C5450.02 620.366 5487.24 592.985 5516.23 595.216C5545.22 597.448 5583.14 651.112 5579.43 693.25C5575.92 733.115 5562.09 766.872 5533.1 764.64C5504.11 762.408 5447.98 723.266 5451.49 683.401ZM5290.83 671.034C5294.54 628.895 5341.35 581.754 5370.33 583.985C5399.32 586.216 5431.25 618.921 5418.77 680.882C5415.26 720.747 5353.04 750.779 5324.05 748.547C5295.06 746.316 5287.32 710.898 5290.83 671.034ZM1774.57 596.191C1794.81 585.682 1829.6 594.254 1846.93 640.687C1861.09 668.693 1832.07 714.444 1811.84 724.954C1791.61 735.463 1771.8 715.076 1757.64 687.07C1742.68 657.467 1754.34 606.7 1774.57 596.191ZM2044.55 588.388C2071.22 589.088 2097.83 611.78 2094.55 656.029C2092.63 682.006 2089.97 719.094 2063.3 718.395C2036.63 717.695 2034.81 703.306 2010.97 669.442C1988.35 630.448 2017.88 587.688 2044.55 588.388ZM6365.64 508.906C6405.07 502.332 6456.43 556.659 6434.85 617.899C6433.92 622.103 6432.63 626.359 6430.93 630.639C6410.33 671.85 6407.44 691.778 6386.3 700.193C6380.02 704.253 6372.27 706.995 6361.84 708.733C6321.15 715.516 6309.98 660.229 6302.06 621.518C6288.56 555.58 6324.95 515.689 6365.64 508.906ZM6666.16 541.146C6683.79 467.492 6735.41 447.105 6768.39 458.586C6801.37 470.068 6828.96 544.019 6811.72 591.818C6795.42 637.037 6769 671.998 6736.02 660.517C6703.04 649.036 6649.86 586.366 6666.16 541.146ZM1876.4 543.3C1896.63 532.791 1944.1 552.842 1959.06 582.445C1973.22 610.45 1977.97 638.659 1957.74 649.168C1937.51 659.678 1883.92 656.832 1869.77 628.827C1842.71 587.448 1856.17 553.81 1876.4 543.3ZM7719.57 511.191C7739.81 500.682 7774.6 509.254 7791.93 555.687C7806.09 583.693 7777.07 629.444 7756.84 639.954C7736.61 650.463 7716.8 630.076 7702.64 602.07C7687.68 572.467 7699.34 521.7 7719.57 511.191ZM7989.55 503.388C8016.22 504.088 8042.83 526.78 8039.55 571.029C8037.63 597.006 8034.97 634.095 8008.3 633.395C7981.63 632.695 7979.82 618.306 7955.97 584.442C7933.35 545.448 7962.88 502.688 7989.55 503.388ZM4347.11 515.3C4318.61 447.364 4375.41 384.236 4418.49 390.952C4461.57 397.667 4499.96 440.017 4485.39 511.051C4476.83 552.754 4464.76 612.313 4421.68 605.597C4378.6 598.881 4378.67 575.18 4347.11 515.3ZM3050.9 502.883C3052.65 445.422 3113.4 418.971 3141.82 437.677C3170.24 456.383 3183.8 498.874 3150.47 544.601C3130.9 571.447 3103.07 609.836 3074.65 591.13C3046.23 572.424 3053.94 555.615 3050.9 502.883ZM6483.37 477.516C6500.61 429.717 6569.42 389.323 6602.4 400.804C6635.38 412.285 6662.43 460.056 6628.94 528.188C6612.64 573.407 6531.16 589.204 6498.18 577.723C6465.2 566.242 6467.07 522.736 6483.37 477.516ZM7821.4 458.3C7841.63 447.791 7889.1 467.842 7904.06 497.445C7918.22 525.45 7922.97 553.659 7902.74 564.168C7882.51 574.678 7828.92 571.832 7814.77 543.827C7787.71 502.448 7801.17 468.81 7821.4 458.3ZM2676.52 401.785C2706.86 388.112 2759.75 420.927 2755.4 474.809C2755.54 478.391 2755.41 482.091 2754.95 485.897C2747.13 523.439 2749.03 540.093 2733.82 551.359C2729.63 555.966 2723.97 559.826 2715.94 563.444C2684.63 577.552 2663.88 535.422 2649.28 505.946C2624.4 455.738 2645.21 415.893 2676.52 401.785ZM3979.28 347.098C4014.27 334.299 4068.88 355.476 4087.25 434.363C4104.34 482.718 4047.73 550.8 4012.74 563.6C3977.74 576.4 3949.9 539.209 3932.81 490.853C3914.75 439.74 3944.29 359.898 3979.28 347.098ZM800.73 200.648C840.393 182.61 884.441 189.242 914.626 214.096C919.13 216.581 925.729 222.875 935.074 234.428C950.635 247.234 954.527 251.481 976.495 257.805C978.118 258.273 979.678 258.734 981.173 259.187C1020.65 260.043 1057.23 282.143 1073.68 319.398C1096.91 372.017 1071.18 434.941 1016.21 459.942C1011.04 462.295 1005.79 464.227 1000.51 465.754C983.116 472.451 950.615 477.536 933.196 485.458C921.175 490.925 902.996 503.856 886.097 515.086C878.694 521.078 870.402 526.251 861.31 530.386C859.701 531.118 858.084 531.807 856.461 532.458C855.772 532.746 855.103 533.007 854.456 533.242C801.165 553.484 741.976 530.825 719.703 480.38C708.308 454.574 708.693 426.29 718.527 401.216C720.457 395.599 723.463 388.437 727.766 379.438C737.736 358.589 737.204 352.815 738.143 332.504C737.402 327.697 736.878 323.48 736.547 319.805C727.37 272.535 753.053 222.33 800.73 200.648ZM4155.39 282.681C4190.38 269.882 4263.12 312.315 4281.18 363.428C4298.27 411.784 4300.07 458.501 4265.07 471.3C4230.08 484.099 4143.83 468.274 4126.74 419.918C4091.54 347.187 4120.4 295.481 4155.39 282.681ZM2925.28 363.861C2923.81 300.826 2961.03 273.444 2990.02 275.675C3019.01 277.907 3056.93 331.571 3053.22 373.709C3049.71 413.574 3035.88 447.332 3006.89 445.1C2977.9 442.868 2921.77 403.726 2925.28 363.861ZM2764.62 351.493C2768.33 309.354 2815.14 262.212 2844.12 264.444C2873.11 266.676 2905.04 299.381 2892.56 361.342C2889.05 401.207 2826.83 431.239 2797.84 429.007C2768.85 426.775 2761.11 391.357 2764.62 351.493ZM578.054 264.586C598.032 237.966 660.191 241.182 682.381 290.476C684.239 293.541 685.905 296.847 687.341 300.401C698.608 337.056 708.313 350.723 700.427 367.932C698.982 373.989 695.885 380.102 690.598 387.147C669.985 414.614 631.485 387.727 604.467 368.96C558.446 336.994 557.441 292.054 578.054 264.586ZM954.742 172.443C928.536 121.276 968.983 68.7866 1002.9 71.4536C1036.82 74.1211 1069.2 104.792 1062.08 160.927C1057.9 193.883 1052.05 240.939 1018.13 238.272C984.211 235.604 982.856 217.159 954.742 172.443ZM658.562 63.4097C685.029 51.3732 728.775 64.608 747.752 124.897C763.917 161.506 723.913 217.84 697.447 229.876C670.981 241.912 647.107 214.629 630.943 178.02C613.857 139.323 632.096 75.4468 658.562 63.4097ZM791.763 2.83252C818.23 -9.20355 877.344 19.4936 894.43 58.1909C910.595 94.8004 914.77 131.042 888.303 143.079C861.837 155.115 793.785 147.922 777.621 111.313C745.914 56.8132 765.297 14.8689 791.763 2.83252Z" fill="#E0C0A2" fill-opacity="0.22"/>
</svg>
