<svg width="4776" height="4776" viewBox="0 0 4776 4776" fill="none" xmlns="http://www.w3.org/2000/svg">
<path d="M2388 0C3706.86 0 4776 1069.14 4776 2388C4776 3706.86 3706.86 4776 2388 4776C1069.14 4776 0 3706.86 0 2388C0 1069.14 1069.14 0 2388 0Z" fill="#D9D9D9"/>
<mask id="mask0_427_1360" style="mask-type:alpha" maskUnits="userSpaceOnUse" x="0" y="0" width="4776" height="4776">
<path d="M2388 0C3706.86 0 4776 1069.14 4776 2388C4776 3706.86 3706.86 4776 2388 4776C1069.14 4776 0 3706.86 0 2388C0 1069.14 1069.14 0 2388 0Z" fill="#D9D9D9"/>
</mask>
<g mask="url(#mask0_427_1360)">
<path d="M3470.71 2314.81C3470.71 2816.28 2972.02 3013.81 2325.62 3063.31C1690.12 2997.81 1182.71 2816.28 1182.71 2314.81C1182.71 1813.33 1641 1418.31 2325.62 1376.81C3002 1413.31 3470.71 1813.33 3470.71 2314.81Z" fill="#848484"/>
<path d="M1279.72 2088.55C1399.06 1820.96 2282 1568.31 2016.5 1428.81C1751 1289.31 1732.8 1283.44 1634.39 1227.73C1535.98 1172.03 1239.28 1066.64 1196 1088.81C1152.72 1110.97 1159.13 1244.86 1167.24 1397.94C1175.35 1551.02 1160.37 2356.15 1279.72 2088.55Z" fill="#848484" stroke="#848484"/>
<path d="M3364.74 2137.01C3245.4 1869.41 2362.46 1616.76 2627.96 1477.26C2893.46 1337.76 2911.66 1331.9 3010.07 1276.19C3108.47 1220.48 3381.7 1107.14 3424.98 1129.3C3468.25 1151.46 3485.33 1293.32 3477.22 1446.4C3469.1 1599.48 3484.08 2404.6 3364.74 2137.01Z" fill="#848484" stroke="#848484"/>
<line x1="1447.41" y1="2331.59" x2="804.806" y2="2173.66" stroke="#848484" stroke-width="10"/>
<line x1="1450.69" y1="2505.65" x2="809.229" y2="2668.13" stroke="#848484" stroke-width="10"/>
<line x1="1412.26" y1="2430.04" x2="750.847" y2="2409.8" stroke="#848484" stroke-width="10"/>
<line y1="-5" x2="661.722" y2="-5" transform="matrix(0.971103 -0.238662 -0.238662 -0.971103 3176.84 2326.73)" stroke="#848484" stroke-width="10"/>
<line y1="-5" x2="661.722" y2="-5" transform="matrix(0.969386 0.245543 0.245543 -0.969386 3175.97 2500.8)" stroke="#848484" stroke-width="10"/>
<line y1="-5" x2="661.722" y2="-5" transform="matrix(0.999533 -0.0305741 -0.0305741 -0.999533 3213.03 2425.03)" stroke="#848484" stroke-width="10"/>
<path d="M3715 4372.32C3715 5012.59 3092.68 4890.74 2325 4890.74C1557.33 4890.74 935.002 5012.59 935.002 4372.32C935.002 3732.04 1557.33 3213 2325 3213C3092.68 3213 3715 3732.04 3715 4372.32Z" fill="#848484"/>
</g>
</svg>
